<svg preserveAspectRatio="none" width="100%" height="100%" overflow="visible" style="display: block;" viewBox="0 0 20.2363 19.5004" fill="none" xmlns="http://www.w3.org/2000/svg">
<path id="Vector" d="M4.11812 0.750203C5.11814 3.7502 4.61814 6.2502 2.11812 9.2502C1.74465 9.69838 1.46044 10.18 1.25049 10.6818C0.0551212 13.5389 1.26751 17.049 2.11812 18.7502M16.1181 0.750203C15.1181 3.7502 15.6181 6.2502 18.1181 9.2502C18.4799 9.68429 18.7579 10.1498 18.9658 10.6346C20.1945 13.5001 18.9734 17.0396 18.1181 18.7502M10.1558 6.7502V6.2502M10.1181 16.7502L10.184 16.2232C10.432 14.2391 12.1186 12.7502 14.1181 12.7502M10.1181 16.7502V18.7502M10.1181 16.7502L10.0522 16.2232C9.8042 14.2391 8.11761 12.7502 6.11811 12.7502" stroke="var(--stroke-0, #4979FB)" stroke-width="1.5" stroke-linecap="round" stroke-linejoin="round"/>
</svg>
