<svg preserveAspectRatio="none" width="100%" height="100%" overflow="visible" style="display: block;" viewBox="0 0 21.5 21.5" fill="none" xmlns="http://www.w3.org/2000/svg">
<g id="Group">
<path id="Vector" d="M10.75 21.5C4.82 21.5 0 16.68 0 10.75C0 4.82 4.82 0 10.75 0C16.68 0 21.5 4.82 21.5 10.75C21.5 16.68 16.68 21.5 10.75 21.5ZM10.75 1.5C5.65 1.5 1.5 5.65 1.5 10.75C1.5 15.85 5.65 20 10.75 20C15.85 20 20 15.85 20 10.75C20 5.65 15.85 1.5 10.75 1.5Z" fill="var(--fill-0, #6A6A6A)"/>
<path id="Vector_2" d="M10.75 12.5C10.34 12.5 10 12.16 10 11.75V6.75C10 6.34 10.34 6 10.75 6C11.16 6 11.5 6.34 11.5 6.75V11.75C11.5 12.16 11.16 12.5 10.75 12.5Z" fill="var(--fill-0, #6A6A6A)"/>
<path id="Vector_3" d="M10.75 15.7509C10.62 15.7509 10.49 15.7209 10.37 15.6709C10.25 15.6209 10.14 15.5509 10.04 15.4609C9.95 15.3609 9.88 15.2609 9.83 15.1309C9.78 15.0109 9.75 14.8809 9.75 14.7509C9.75 14.6209 9.78 14.4909 9.83 14.3709C9.88 14.2509 9.95 14.1409 10.04 14.0409C10.14 13.9509 10.25 13.8809 10.37 13.8309C10.61 13.7309 10.89 13.7309 11.13 13.8309C11.25 13.8809 11.36 13.9509 11.46 14.0409C11.55 14.1409 11.62 14.2509 11.67 14.3709C11.72 14.4909 11.75 14.6209 11.75 14.7509C11.75 14.8809 11.72 15.0109 11.67 15.1309C11.62 15.2609 11.55 15.3609 11.46 15.4609C11.36 15.5509 11.25 15.6209 11.13 15.6709C11.01 15.7209 10.88 15.7509 10.75 15.7509Z" fill="var(--fill-0, #6A6A6A)"/>
</g>
</svg>
