<svg preserveAspectRatio="none" width="100%" height="100%" overflow="visible" style="display: block;" viewBox="0 0 19.4069 19.507" fill="none" xmlns="http://www.w3.org/2000/svg">
<g id="Group">
<path id="Vector" d="M3.11698 19.507C1.99698 19.507 1.28698 19.127 0.83698 18.677C-0.0430202 17.797 -0.66302 15.927 1.31698 11.957L2.18698 10.227C2.29698 9.99701 2.29698 9.51701 2.18698 9.28701L1.31698 7.55698C-0.67302 3.58698 -0.0430202 1.70698 0.83698 0.83698C1.70698 -0.0430202 3.58698 -0.67302 7.54698 1.31698L16.1069 5.59698C18.2369 6.65698 19.4069 8.13701 19.4069 9.75701C19.4069 11.377 18.2369 12.857 16.1169 13.917L7.55698 18.197C5.61698 19.167 4.17698 19.507 3.11698 19.507ZM3.11698 1.50698C2.57698 1.50698 2.15698 1.63698 1.89698 1.89698C1.16698 2.61698 1.45698 4.48698 2.65698 6.87698L3.52698 8.61701C3.84698 9.26701 3.84698 10.247 3.52698 10.897L2.65698 12.627C1.45698 15.027 1.16698 16.887 1.89698 17.607C2.61698 18.337 4.48698 18.047 6.88698 16.847L15.4469 12.567C17.0169 11.787 17.9069 10.757 17.9069 9.74701C17.9069 8.73701 17.0069 7.70698 15.4369 6.92698L6.87698 2.65698C5.35698 1.89698 4.04698 1.50698 3.11698 1.50698Z" fill="var(--fill-0, #4979FB)"/>
<path id="Vector_2" d="M8.54693 10.5078H3.14697C2.73697 10.5078 2.39697 10.1678 2.39697 9.75781C2.39697 9.34781 2.73697 9.00781 3.14697 9.00781H8.54693C8.95693 9.00781 9.29693 9.34781 9.29693 9.75781C9.29693 10.1678 8.95693 10.5078 8.54693 10.5078Z" fill="var(--fill-0, #4979FB)"/>
</g>
</svg>
