<svg preserveAspectRatio="none" width="100%" height="100%" overflow="visible" style="display: block;" viewBox="0 0 14.6667 14.6667" fill="none" xmlns="http://www.w3.org/2000/svg">
<g id="Star">
<path id="Star 2" d="M6.30516 1.70847C6.77156 0.933482 7.89511 0.933481 8.3615 1.70847L9.48503 3.57538C9.65258 3.8538 9.92588 4.05236 10.2424 4.12568L12.3652 4.61731C13.2464 4.82139 13.5936 5.88995 13.0006 6.573L11.5723 8.21845C11.3593 8.46384 11.2549 8.78512 11.283 9.10884L11.4714 11.2796C11.5496 12.1807 10.6406 12.8411 9.80774 12.4883L7.80144 11.6383C7.50224 11.5116 7.16443 11.5116 6.86523 11.6383L4.85893 12.4883C4.02608 12.8411 3.11711 12.1807 3.19531 11.2796L3.38371 9.10884C3.4118 8.78512 3.30741 8.46384 3.0944 8.21845L1.66604 6.573C1.07311 5.88995 1.42031 4.82139 2.30149 4.61731L4.42422 4.12568C4.74079 4.05236 5.01408 3.8538 5.18164 3.57538L6.30516 1.70847Z" stroke="var(--stroke-0, white)"/>
</g>
</svg>
