<svg preserveAspectRatio="none" width="100%" height="100%" overflow="visible" style="display: block;" viewBox="0 0 39 43" fill="none" xmlns="http://www.w3.org/2000/svg">
<g id="Group">
<path id="Vector" d="M11.5 9C10.68 9 10 8.32 10 7.5V1.5C10 0.68 10.68 0 11.5 0C12.32 0 13 0.68 13 1.5V7.5C13 8.32 12.32 9 11.5 9Z" fill="var(--fill-0, #6A6A6A)"/>
<path id="Vector_2" d="M27.5 9C26.68 9 26 8.32 26 7.5V1.5C26 0.68 26.68 0 27.5 0C28.32 0 29 0.68 29 1.5V7.5C29 8.32 28.32 9 27.5 9Z" fill="var(--fill-0, #6A6A6A)"/>
<path id="Vector_3" d="M25.5 25H9.5C8.68 25 8 24.32 8 23.5C8 22.68 8.68 22 9.5 22H25.5C26.32 22 27 22.68 27 23.5C27 24.32 26.32 25 25.5 25Z" fill="var(--fill-0, #6A6A6A)"/>
<path id="Vector_4" d="M19.5 33H9.5C8.68 33 8 32.32 8 31.5C8 30.68 8.68 30 9.5 30H19.5C20.32 30 21 30.68 21 31.5C21 32.32 20.32 33 19.5 33Z" fill="var(--fill-0, #6A6A6A)"/>
<path id="Vector_5" d="M25.5 43H13.5C2.26 43 0 37.7 0 29.14V16.8C0 7.32 3.2 3.46 11.42 3H27.5C27.52 3 27.56 3 27.58 3C35.8 3.46 39 7.32 39 16.8V29.14C39 37.7 36.74 43 25.5 43ZM11.5 6C5.9 6.32 3 8.08 3 16.8V29.14C3 36.8 4.46 40 13.5 40H25.5C34.54 40 36 36.8 36 29.14V16.8C36 8.1 33.12 6.32 27.46 6H11.5Z" fill="var(--fill-0, #6A6A6A)"/>
</g>
</svg>
