<svg preserveAspectRatio="none" width="100%" height="100%" overflow="visible" style="display: block;" viewBox="0 0 16 16" fill="none" xmlns="http://www.w3.org/2000/svg">
<g id="Icon Frame">
<g id="Base">
</g>
<path id="Vector" d="M11.718 3.32895C11.9927 3.78844 12.5026 4.09711 13.0862 4.09711C13.9609 4.09711 14.67 3.4038 14.67 2.54856C14.67 1.69331 13.9609 1 13.0862 1C12.2116 1 11.5025 1.69331 11.5025 2.54856C11.5025 2.83315 11.581 3.0998 11.718 3.32895ZM11.718 3.32895L4.95198 7.1881M4.95198 7.1881C4.67726 6.72861 4.16737 6.41994 3.58375 6.41994C2.70907 6.41994 2 7.11326 2 7.9685C2 8.82374 2.70907 9.51706 3.58375 9.51706C4.16737 9.51706 4.67726 9.20839 4.95198 8.7489M4.95198 7.1881C5.08899 7.41725 5.1675 7.68391 5.1675 7.9685C5.1675 8.25309 5.08899 8.51975 4.95198 8.7489M4.95198 8.7489L11.718 12.608M11.718 12.608C11.9927 12.1486 12.5026 11.8399 13.0862 11.8399C13.9609 11.8399 14.67 12.5332 14.67 13.3884C14.67 14.2437 13.9609 14.937 13.0862 14.937C12.2116 14.937 11.5025 14.2437 11.5025 13.3884C11.5025 13.1039 11.581 12.8372 11.718 12.608Z" stroke="var(--stroke-0, #6A6A6A)" stroke-width="1.5" stroke-linecap="round" stroke-linejoin="round"/>
</g>
</svg>
