<svg preserveAspectRatio="none" width="100%" height="100%" overflow="visible" style="display: block;" viewBox="0 0 21.5 21.5" fill="none" xmlns="http://www.w3.org/2000/svg">
<g id="Group">
<path id="Vector" d="M16.75 9.5C16.34 9.5 16 9.16 16 8.75V6.75C16 3.6 15.11 1.5 10.75 1.5C6.39 1.5 5.5 3.6 5.5 6.75V8.75C5.5 9.16 5.16 9.5 4.75 9.5C4.34 9.5 4 9.16 4 8.75V6.75C4 3.85 4.7 0 10.75 0C16.8 0 17.5 3.85 17.5 6.75V8.75C17.5 9.16 17.16 9.5 16.75 9.5Z" fill="var(--fill-0, #6A6A6A)"/>
<path id="Vector_2" d="M10.75 18C8.96 18 7.5 16.54 7.5 14.75C7.5 12.96 8.96 11.5 10.75 11.5C12.54 11.5 14 12.96 14 14.75C14 16.54 12.54 18 10.75 18ZM10.75 13C9.79 13 9 13.79 9 14.75C9 15.71 9.79 16.5 10.75 16.5C11.71 16.5 12.5 15.71 12.5 14.75C12.5 13.79 11.71 13 10.75 13Z" fill="var(--fill-0, #6A6A6A)"/>
<path id="Vector_3" d="M15.75 21.5H5.75C1.34 21.5 0 20.16 0 15.75V13.75C0 9.34 1.34 8 5.75 8H15.75C20.16 8 21.5 9.34 21.5 13.75V15.75C21.5 20.16 20.16 21.5 15.75 21.5ZM5.75 9.5C2.17 9.5 1.5 10.18 1.5 13.75V15.75C1.5 19.32 2.17 20 5.75 20H15.75C19.33 20 20 19.32 20 15.75V13.75C20 10.18 19.33 9.5 15.75 9.5H5.75Z" fill="var(--fill-0, #6A6A6A)"/>
</g>
</svg>
