<svg preserveAspectRatio="none" width="100%" height="100%" overflow="visible" style="display: block;" viewBox="0 0 14.625 16.125" fill="none" xmlns="http://www.w3.org/2000/svg">
<g id="Group">
<path id="Vector" d="M4.3125 3.375C4.005 3.375 3.75 3.12 3.75 2.8125V0.5625C3.75 0.255 4.005 1.19209e-07 4.3125 1.19209e-07C4.62 1.19209e-07 4.875 0.255 4.875 0.5625V2.8125C4.875 3.12 4.62 3.375 4.3125 3.375Z" fill="var(--fill-0, #FF5722)"/>
<path id="Vector_2" d="M10.3125 3.375C10.005 3.375 9.75 3.12 9.75 2.8125V0.5625C9.75 0.255 10.005 1.19209e-07 10.3125 1.19209e-07C10.62 1.19209e-07 10.875 0.255 10.875 0.5625V2.8125C10.875 3.12 10.62 3.375 10.3125 3.375Z" fill="var(--fill-0, #FF5722)"/>
<path id="Vector_3" d="M4.6875 9.93772C4.59 9.93772 4.4925 9.91522 4.4025 9.87772C4.305 9.84022 4.23 9.78772 4.155 9.72022C4.02 9.57772 3.9375 9.39022 3.9375 9.18772C3.9375 9.09022 3.96 8.99272 3.9975 8.90272C4.035 8.81272 4.0875 8.73022 4.155 8.65522C4.23 8.58772 4.305 8.53522 4.4025 8.49772C4.6725 8.38522 5.01 8.44522 5.22 8.65522C5.355 8.79772 5.4375 8.99272 5.4375 9.18772C5.4375 9.23272 5.43 9.28522 5.4225 9.33772C5.415 9.38272 5.4 9.42772 5.3775 9.47272C5.3625 9.51772 5.34 9.56272 5.31 9.60772C5.2875 9.64522 5.25 9.68272 5.22 9.72022C5.0775 9.85522 4.8825 9.93772 4.6875 9.93772Z" fill="var(--fill-0, #FF5722)"/>
<path id="Vector_4" d="M7.3125 9.9381C7.215 9.9381 7.1175 9.91567 7.0275 9.87817C6.93 9.84067 6.855 9.7881 6.78 9.7206C6.645 9.5781 6.5625 9.3906 6.5625 9.1881C6.5625 9.0906 6.585 8.9931 6.6225 8.9031C6.66 8.8131 6.7125 8.73067 6.78 8.65567C6.855 8.58817 6.93 8.5356 7.0275 8.4981C7.2975 8.3781 7.635 8.44567 7.845 8.65567C7.98 8.79817 8.0625 8.9931 8.0625 9.1881C8.0625 9.2331 8.055 9.28567 8.0475 9.33817C8.04 9.38317 8.025 9.42817 8.0025 9.47317C7.9875 9.51817 7.965 9.5631 7.935 9.6081C7.9125 9.6456 7.875 9.6831 7.845 9.7206C7.7025 9.8556 7.5075 9.9381 7.3125 9.9381Z" fill="var(--fill-0, #FF5722)"/>
<path id="Vector_5" d="M9.9375 9.9381C9.84 9.9381 9.7425 9.91567 9.6525 9.87817C9.555 9.84067 9.48 9.7881 9.405 9.7206C9.375 9.6831 9.345 9.6456 9.315 9.6081C9.285 9.5631 9.2625 9.51817 9.2475 9.47317C9.225 9.42817 9.21 9.38317 9.2025 9.33817C9.195 9.28567 9.1875 9.2331 9.1875 9.1881C9.1875 8.9931 9.27 8.79817 9.405 8.65567C9.48 8.58817 9.555 8.5356 9.6525 8.4981C9.93 8.3781 10.26 8.44567 10.47 8.65567C10.605 8.79817 10.6875 8.9931 10.6875 9.1881C10.6875 9.2331 10.68 9.28567 10.6725 9.33817C10.665 9.38317 10.65 9.42817 10.6275 9.47317C10.6125 9.51817 10.59 9.5631 10.56 9.6081C10.5375 9.6456 10.5 9.6831 10.47 9.7206C10.3275 9.8556 10.1325 9.9381 9.9375 9.9381Z" fill="var(--fill-0, #FF5722)"/>
<path id="Vector_6" d="M4.6875 12.5619C4.59 12.5619 4.4925 12.5394 4.4025 12.5019C4.3125 12.4644 4.23 12.4119 4.155 12.3444C4.02 12.2019 3.9375 12.0069 3.9375 11.8119C3.9375 11.7144 3.96 11.6169 3.9975 11.5269C4.035 11.4294 4.0875 11.3469 4.155 11.2794C4.4325 11.0019 4.9425 11.0019 5.22 11.2794C5.355 11.4219 5.4375 11.6169 5.4375 11.8119C5.4375 12.0069 5.355 12.2019 5.22 12.3444C5.0775 12.4794 4.8825 12.5619 4.6875 12.5619Z" fill="var(--fill-0, #FF5722)"/>
<path id="Vector_7" d="M7.3125 12.5619C7.1175 12.5619 6.9225 12.4794 6.78 12.3444C6.645 12.2019 6.5625 12.0069 6.5625 11.8119C6.5625 11.7144 6.585 11.6169 6.6225 11.5269C6.66 11.4294 6.7125 11.3469 6.78 11.2794C7.0575 11.0019 7.5675 11.0019 7.845 11.2794C7.9125 11.3469 7.965 11.4294 8.0025 11.5269C8.04 11.6169 8.0625 11.7144 8.0625 11.8119C8.0625 12.0069 7.98 12.2019 7.845 12.3444C7.7025 12.4794 7.5075 12.5619 7.3125 12.5619Z" fill="var(--fill-0, #FF5722)"/>
<path id="Vector_8" d="M9.9375 12.5632C9.7425 12.5632 9.5475 12.4807 9.405 12.3457C9.3375 12.2782 9.285 12.1957 9.2475 12.0982C9.21 12.0082 9.1875 11.9107 9.1875 11.8132C9.1875 11.7157 9.21 11.6182 9.2475 11.5282C9.285 11.4307 9.3375 11.3482 9.405 11.2807C9.5775 11.1082 9.84 11.0257 10.08 11.0782C10.1325 11.0857 10.1775 11.1007 10.2225 11.1232C10.2675 11.1382 10.3125 11.1607 10.3575 11.1907C10.395 11.2132 10.4325 11.2507 10.47 11.2807C10.605 11.4232 10.6875 11.6182 10.6875 11.8132C10.6875 12.0082 10.605 12.2032 10.47 12.3457C10.3275 12.4807 10.1325 12.5632 9.9375 12.5632Z" fill="var(--fill-0, #FF5722)"/>
<path id="Vector_9" d="M13.6875 6.44238H0.9375C0.63 6.44238 0.375 6.18738 0.375 5.87988C0.375 5.57238 0.63 5.31738 0.9375 5.31738H13.6875C13.995 5.31738 14.25 5.57238 14.25 5.87988C14.25 6.18738 13.995 6.44238 13.6875 6.44238Z" fill="var(--fill-0, #FF5722)"/>
<path id="Vector_10" d="M10.3125 16.125H4.3125C1.575 16.125 0 14.55 0 11.8125V5.4375C0 2.7 1.575 1.125 4.3125 1.125H10.3125C13.05 1.125 14.625 2.7 14.625 5.4375V11.8125C14.625 14.55 13.05 16.125 10.3125 16.125ZM4.3125 2.25C2.1675 2.25 1.125 3.2925 1.125 5.4375V11.8125C1.125 13.9575 2.1675 15 4.3125 15H10.3125C12.4575 15 13.5 13.9575 13.5 11.8125V5.4375C13.5 3.2925 12.4575 2.25 10.3125 2.25H4.3125Z" fill="var(--fill-0, #FF5722)"/>
</g>
</svg>
