<svg preserveAspectRatio="none" width="100%" height="100%" overflow="visible" style="display: block;" viewBox="0 0 20.9539 21.22" fill="none" xmlns="http://www.w3.org/2000/svg">
<g id="Icon Container">
<rect width="20.9539" height="21.22" rx="4" fill="var(--fill-0, #FEBD59)"/>
<path id="Vector" d="M4 12H8.33333C9 12 9.66667 13 10.3333 13C10.9095 13 11.9838 12.502 12.4799 13.443C12.6367 13.7404 12.4273 14.0802 12.1167 14.209C11.3974 14.5072 10.5961 14.9124 10.3333 15L8.33333 14.3333M12.6667 13.6667L15.7173 12.4464C15.9025 12.3723 16.1039 12.3482 16.3014 12.3764C16.9992 12.4761 17.1964 13.3902 16.6017 13.7686L11.5057 17.0115C11.1841 17.2162 10.7902 17.2734 10.4236 17.1686L4 15.3333M10.3333 10.6667C9.05 10.2149 6.66667 8.27273 6.66667 6.13637C6.66667 4.95649 7.56956 4 8.68333 4C9.36539 4 9.96837 4.3587 10.3333 4.90772C10.6983 4.3587 11.3013 4 11.9833 4C13.0971 4 14 4.95649 14 6.13637C14 8.27273 11.6167 10.2149 10.3333 10.6667Z" stroke="var(--stroke-0, white)" stroke-linecap="round" stroke-linejoin="round"/>
</g>
</svg>
