<svg preserveAspectRatio="none" width="100%" height="100%" overflow="visible" style="display: block;" viewBox="0 0 19.0059 21.5039" fill="none" xmlns="http://www.w3.org/2000/svg">
<g id="Group">
<path id="Vector" d="M14.0037 7.3842C13.5937 7.3842 13.2537 7.04421 13.2537 6.63421V5.25421C13.2537 4.20421 12.8037 3.1842 12.0237 2.47421C11.2337 1.7542 10.2137 1.42421 9.13366 1.52421C7.33366 1.69421 5.75366 3.53421 5.75366 5.45421V6.42421C5.75366 6.83421 5.41366 7.1742 5.00366 7.1742C4.59366 7.1742 4.25366 6.83421 4.25366 6.42421V5.44421C4.25366 2.75421 6.42366 0.274205 8.99366 0.0242052C10.4937 -0.115795 11.9337 0.354205 13.0337 1.36421C14.1237 2.35421 14.7537 3.77421 14.7537 5.25421V6.63421C14.7537 7.04421 14.4137 7.3842 14.0037 7.3842Z" fill="var(--fill-0, #6A6A6A)"/>
<path id="Vector_2" d="M12.5038 21.5039H6.50372C1.88372 21.5039 1.02372 19.3539 0.803725 17.2639L0.0537245 11.2739C-0.0562755 10.1939 -0.0962756 8.6439 0.953724 7.4839C1.85372 6.4839 3.34372 6.00391 5.50372 6.00391H13.5038C15.6738 6.00391 17.1638 6.4939 18.0538 7.4839C19.0938 8.6439 19.0638 10.1939 18.9538 11.2539L18.2038 17.2639C17.9838 19.3539 17.1238 21.5039 12.5038 21.5039ZM5.50372 7.50391C3.81372 7.50391 2.65372 7.83391 2.06372 8.49391C1.57372 9.03391 1.41372 9.86391 1.54372 11.1039L2.29372 17.0939C2.46372 18.6939 2.90372 20.0139 6.50372 20.0139H12.5038C16.1038 20.0139 16.5438 18.7039 16.7138 17.1139L17.4638 11.1039C17.5938 9.88391 17.4338 9.05391 16.9438 8.50391C16.3538 7.83391 15.1938 7.50391 13.5038 7.50391H5.50372Z" fill="var(--fill-0, #6A6A6A)"/>
<path id="Vector_3" d="M12.9236 11.9043C12.3636 11.9043 11.9136 11.4543 11.9136 10.9043C11.9136 10.3543 12.3636 9.90431 12.9136 9.90431C13.4636 9.90431 13.9136 10.3543 13.9136 10.9043C13.9136 11.4543 13.4736 11.9043 12.9236 11.9043Z" fill="var(--fill-0, #6A6A6A)"/>
<path id="Vector_4" d="M5.92357 11.9043C5.36357 11.9043 4.91357 11.4543 4.91357 10.9043C4.91357 10.3543 5.36357 9.90431 5.91357 9.90431C6.46357 9.90431 6.91357 10.3543 6.91357 10.9043C6.91357 11.4543 6.47357 11.9043 5.92357 11.9043Z" fill="var(--fill-0, #6A6A6A)"/>
</g>
</svg>
