<svg preserveAspectRatio="none" width="100%" height="100%" overflow="visible" style="display: block;" viewBox="0 0 19.5 21.5" fill="none" xmlns="http://www.w3.org/2000/svg">
<g id="Group">
<path id="Vector" d="M5.75 4.5C5.34 4.5 5 4.16 5 3.75V0.75C5 0.34 5.34 0 5.75 0C6.16 0 6.5 0.34 6.5 0.75V3.75C6.5 4.16 6.16 4.5 5.75 4.5Z" fill="var(--fill-0, #6A6A6A)"/>
<path id="Vector_2" d="M13.75 4.5C13.34 4.5 13 4.16 13 3.75V0.75C13 0.34 13.34 0 13.75 0C14.16 0 14.5 0.34 14.5 0.75V3.75C14.5 4.16 14.16 4.5 13.75 4.5Z" fill="var(--fill-0, #6A6A6A)"/>
<path id="Vector_3" d="M6.25 13.2503C6.12 13.2503 5.99 13.2203 5.87 13.1703C5.74 13.1203 5.64 13.0503 5.54 12.9603C5.36 12.7703 5.25 12.5203 5.25 12.2503C5.25 12.1203 5.28 11.9903 5.33 11.8703C5.38 11.7503 5.45 11.6403 5.54 11.5403C5.64 11.4503 5.74 11.3803 5.87 11.3303C6.23 11.1803 6.68 11.2603 6.96 11.5403C7.14 11.7303 7.25 11.9903 7.25 12.2503C7.25 12.3103 7.24 12.3803 7.23 12.4503C7.22 12.5103 7.2 12.5703 7.17 12.6303C7.15 12.6903 7.12 12.7503 7.08 12.8103C7.05 12.8603 7 12.9103 6.96 12.9603C6.77 13.1403 6.51 13.2503 6.25 13.2503Z" fill="var(--fill-0, #6A6A6A)"/>
<path id="Vector_4" d="M9.75 13.2508C9.62 13.2508 9.49 13.2209 9.37 13.1709C9.24 13.1209 9.14 13.0508 9.04 12.9608C8.86 12.7708 8.75 12.5208 8.75 12.2508C8.75 12.1208 8.78 11.9908 8.83 11.8708C8.88 11.7508 8.95 11.6409 9.04 11.5409C9.14 11.4509 9.24 11.3808 9.37 11.3308C9.73 11.1708 10.18 11.2609 10.46 11.5409C10.64 11.7309 10.75 11.9908 10.75 12.2508C10.75 12.3108 10.74 12.3809 10.73 12.4509C10.72 12.5109 10.7 12.5709 10.67 12.6309C10.65 12.6909 10.62 12.7508 10.58 12.8108C10.55 12.8608 10.5 12.9108 10.46 12.9608C10.27 13.1408 10.01 13.2508 9.75 13.2508Z" fill="var(--fill-0, #6A6A6A)"/>
<path id="Vector_5" d="M13.25 13.2508C13.12 13.2508 12.99 13.2209 12.87 13.1709C12.74 13.1209 12.64 13.0508 12.54 12.9608C12.5 12.9108 12.46 12.8608 12.42 12.8108C12.38 12.7508 12.35 12.6909 12.33 12.6309C12.3 12.5709 12.28 12.5109 12.27 12.4509C12.26 12.3809 12.25 12.3108 12.25 12.2508C12.25 11.9908 12.36 11.7309 12.54 11.5409C12.64 11.4509 12.74 11.3808 12.87 11.3308C13.24 11.1708 13.68 11.2609 13.96 11.5409C14.14 11.7309 14.25 11.9908 14.25 12.2508C14.25 12.3108 14.24 12.3809 14.23 12.4509C14.22 12.5109 14.2 12.5709 14.17 12.6309C14.15 12.6909 14.12 12.7508 14.08 12.8108C14.05 12.8608 14 12.9108 13.96 12.9608C13.77 13.1408 13.51 13.2508 13.25 13.2508Z" fill="var(--fill-0, #6A6A6A)"/>
<path id="Vector_6" d="M6.25 16.7492C6.12 16.7492 5.99 16.7192 5.87 16.6692C5.75 16.6192 5.64 16.5492 5.54 16.4592C5.36 16.2692 5.25 16.0092 5.25 15.7492C5.25 15.6192 5.28 15.4892 5.33 15.3692C5.38 15.2392 5.45 15.1292 5.54 15.0392C5.91 14.6692 6.59 14.6692 6.96 15.0392C7.14 15.2292 7.25 15.4892 7.25 15.7492C7.25 16.0092 7.14 16.2692 6.96 16.4592C6.77 16.6392 6.51 16.7492 6.25 16.7492Z" fill="var(--fill-0, #6A6A6A)"/>
<path id="Vector_7" d="M9.75 16.7492C9.49 16.7492 9.23 16.6392 9.04 16.4592C8.86 16.2692 8.75 16.0092 8.75 15.7492C8.75 15.6192 8.78 15.4892 8.83 15.3692C8.88 15.2392 8.95 15.1292 9.04 15.0392C9.41 14.6692 10.09 14.6692 10.46 15.0392C10.55 15.1292 10.62 15.2392 10.67 15.3692C10.72 15.4892 10.75 15.6192 10.75 15.7492C10.75 16.0092 10.64 16.2692 10.46 16.4592C10.27 16.6392 10.01 16.7492 9.75 16.7492Z" fill="var(--fill-0, #6A6A6A)"/>
<path id="Vector_8" d="M13.25 16.7509C12.99 16.7509 12.73 16.6409 12.54 16.4609C12.45 16.3709 12.38 16.2609 12.33 16.1309C12.28 16.0109 12.25 15.8809 12.25 15.7509C12.25 15.6209 12.28 15.4909 12.33 15.3709C12.38 15.2409 12.45 15.1309 12.54 15.0409C12.77 14.8109 13.12 14.7009 13.44 14.7709C13.51 14.7809 13.57 14.8009 13.63 14.8309C13.69 14.8509 13.75 14.8809 13.81 14.9209C13.86 14.9509 13.91 15.0009 13.96 15.0409C14.14 15.2309 14.25 15.4909 14.25 15.7509C14.25 16.0109 14.14 16.2709 13.96 16.4609C13.77 16.6409 13.51 16.7509 13.25 16.7509Z" fill="var(--fill-0, #6A6A6A)"/>
<path id="Vector_9" d="M18.25 8.58984H1.25C0.84 8.58984 0.5 8.24984 0.5 7.83984C0.5 7.42984 0.84 7.08984 1.25 7.08984H18.25C18.66 7.08984 19 7.42984 19 7.83984C19 8.24984 18.66 8.58984 18.25 8.58984Z" fill="var(--fill-0, #6A6A6A)"/>
<path id="Vector_10" d="M13.75 21.5H5.75C2.1 21.5 0 19.4 0 15.75V7.25C0 3.6 2.1 1.5 5.75 1.5H13.75C17.4 1.5 19.5 3.6 19.5 7.25V15.75C19.5 19.4 17.4 21.5 13.75 21.5ZM5.75 3C2.89 3 1.5 4.39 1.5 7.25V15.75C1.5 18.61 2.89 20 5.75 20H13.75C16.61 20 18 18.61 18 15.75V7.25C18 4.39 16.61 3 13.75 3H5.75Z" fill="var(--fill-0, #6A6A6A)"/>
</g>
</svg>
