<svg preserveAspectRatio="none" width="100%" height="100%" overflow="visible" style="display: block;" viewBox="0 0 19.5208 19.5208" fill="none" xmlns="http://www.w3.org/2000/svg">
<path id="Vector" d="M6.99264 6.87132L4.27019 9.59377C4.20109 9.66287 4.15399 9.75088 4.13482 9.84671L3.51648 12.9384C3.47777 13.132 3.38261 13.3098 3.24301 13.4494L1.33579 15.3566C0.554737 16.1376 0.554738 17.404 1.33579 18.185C2.11684 18.9661 3.38316 18.9661 4.16421 18.185L6.07144 16.2778C6.21104 16.1382 6.38884 16.043 6.58243 16.0043L9.6741 15.386C9.76993 15.3668 9.85794 15.3197 9.92704 15.2506L17.5992 7.57843C19.1613 6.01633 19.1613 3.48367 17.5992 1.92157C16.0371 0.359476 13.5045 0.359475 11.9424 1.92157L9.82107 4.04289M6.99264 6.87132L9.82107 4.04289M6.99264 6.87132L9.82107 9.69975M9.82107 4.04289L12.6495 6.87132" stroke="var(--stroke-0, #4979FB)" stroke-width="1.5" stroke-linecap="round" stroke-linejoin="round"/>
</svg>
