<svg preserveAspectRatio="none" width="100%" height="100%" overflow="visible" style="display: block;" viewBox="0 0 17.0833 18.458" fill="none" xmlns="http://www.w3.org/2000/svg">
<g id="Vector">
<path d="M4.42025 0.749663C2.9941 0.792444 2.14381 0.951183 1.55546 1.54008C0.750001 2.34629 0.750001 3.64385 0.750001 6.23899V12.2029C0.750001 14.798 0.750001 16.0956 1.55546 16.9018C2.36091 17.708 3.65728 17.708 6.25 17.708H10.8333C13.426 17.708 14.7224 17.708 15.5279 16.9018C16.3333 16.0956 16.3333 14.798 16.3333 12.2029V6.23899C16.3333 3.64385 16.3333 2.34629 15.5279 1.54009C14.9396 0.951183 14.0893 0.792444 12.6631 0.749663" fill="#4979FB"/>
<path d="M4.42025 0.749663C2.9941 0.792444 2.14381 0.951183 1.55546 1.54008C0.750001 2.34629 0.750001 3.64385 0.750001 6.23899V12.2029C0.750001 14.798 0.750001 16.0956 1.55546 16.9018C2.36091 17.708 3.65728 17.708 6.25 17.708H10.8333C13.426 17.708 14.7224 17.708 15.5279 16.9018C16.3333 16.0956 16.3333 14.798 16.3333 12.2029V6.23899C16.3333 3.64385 16.3333 2.34629 15.5279 1.54009C14.9396 0.951183 14.0893 0.792444 12.6631 0.749663" stroke="var(--stroke-0, #4979FB)" stroke-width="1.5"/>
</g>
</svg>
