<svg preserveAspectRatio="none" width="100%" height="100%" overflow="visible" style="display: block;" viewBox="0 0 9 10" fill="none" xmlns="http://www.w3.org/2000/svg">
<g id="Vector">
<path d="M1.39861 4.64605C1.49505 4.37724 1.87995 4.37724 1.97639 4.64605L2.2401 5.38111C2.27097 5.46715 2.33951 5.53484 2.42663 5.56533L3.17087 5.82579C3.44304 5.92103 3.44304 6.30119 3.17087 6.39644L2.42663 6.65689C2.33951 6.68738 2.27097 6.75507 2.2401 6.84112L1.97639 7.57617C1.87995 7.84498 1.49505 7.84498 1.39861 7.57617L1.1349 6.84112C1.10403 6.75507 1.03549 6.68738 0.94837 6.65689L0.204127 6.39644C-0.0680422 6.30119 -0.0680424 5.92103 0.204127 5.82579L0.94837 5.56533C1.03549 5.53484 1.10403 5.46715 1.1349 5.38111L1.39861 4.64605Z" fill="#4979FB"/>
<path d="M4.30741 7.91218C4.3717 7.73298 4.6283 7.73298 4.69259 7.91218L4.8684 8.40222C4.88898 8.45958 4.93467 8.50471 4.99275 8.52504L5.48892 8.69867C5.67036 8.76217 5.67036 9.01561 5.48892 9.07911L4.99275 9.25274C4.93467 9.27307 4.88898 9.3182 4.8684 9.37556L4.69259 9.8656C4.6283 10.0448 4.3717 10.0448 4.30741 9.8656L4.1316 9.37556C4.11102 9.3182 4.06533 9.27307 4.00725 9.25274L3.51108 9.07911C3.32964 9.01561 3.32964 8.76217 3.51108 8.69867L4.00725 8.52504C4.06533 8.50471 4.11102 8.45958 4.1316 8.40222L4.30741 7.91218Z" fill="#4979FB"/>
<path d="M5.76931 0.29184C5.90891 -0.0972803 6.46609 -0.09728 6.60569 0.291841L7.08416 1.62551C7.12885 1.75006 7.22806 1.84805 7.35417 1.89219L8.70451 2.36475C9.0985 2.50263 9.0985 3.05293 8.70451 3.19081L7.35417 3.66337C7.22806 3.7075 7.12885 3.80549 7.08416 3.93005L6.60569 5.26372C6.46609 5.65284 5.90891 5.65284 5.76931 5.26372L5.29084 3.93005C5.24615 3.80549 5.14694 3.7075 5.02083 3.66337L3.67049 3.19081C3.2765 3.05293 3.2765 2.50263 3.67049 2.36475L5.02083 1.89219C5.14694 1.84805 5.24615 1.75006 5.29084 1.62551L5.76931 0.29184Z" fill="#4979FB"/>
</g>
</svg>
