<svg preserveAspectRatio="xMidYMid meet" viewBox="0 0 16.125 16.125" fill="none" xmlns="http://www.w3.org/2000/svg">
<g id="Group">
<path id="Vector" d="M8.0625 16.125C3.615 16.125 0 12.51 0 8.0625C0 3.615 3.615 0 8.0625 0C12.51 0 16.125 3.615 16.125 8.0625C16.125 12.51 12.51 16.125 8.0625 16.125ZM8.0625 1.125C4.2375 1.125 1.125 4.2375 1.125 8.0625C1.125 11.8875 4.2375 15 8.0625 15C11.8875 15 15 11.8875 15 8.0625C15 4.2375 11.8875 1.125 8.0625 1.125Z" fill="var(--fill-0, white)"/>
<path id="Vector_2" d="M10.8449 11.0099C10.7474 11.0099 10.6499 10.9874 10.5599 10.9274L8.23493 9.53985C7.65743 9.19485 7.22993 8.43735 7.22993 7.76985V4.69483C7.22993 4.38733 7.48493 4.13233 7.79243 4.13233C8.09993 4.13233 8.35493 4.38733 8.35493 4.69483V7.76985C8.35493 8.03985 8.57992 8.43735 8.81242 8.57235L11.1374 9.95985C11.4074 10.1174 11.4899 10.4623 11.3324 10.7323C11.2199 10.9123 11.0324 11.0099 10.8449 11.0099Z" fill="var(--fill-0, white)"/>
</g>
</svg>
