<svg preserveAspectRatio="none" width="100%" height="100%" overflow="visible" style="display: block;" viewBox="0 0 15 24.9998" fill="none" xmlns="http://www.w3.org/2000/svg">
<path id="Dictation" fill-rule="evenodd" clip-rule="evenodd" d="M11.9933 11.8786C11.9933 12.382 11.9933 12.9121 11.9667 13.4155C11.9462 13.8694 11.8769 14.3198 11.76 14.7589C11.4991 15.6806 10.9429 16.4911 10.1767 17.0658C8.60513 18.3059 6.38821 18.3059 4.81667 17.0658C4.04849 16.4929 3.49153 15.6817 3.23267 14.7589C3.11523 14.32 3.04604 13.8695 3.02634 13.4155C2.99958 12.951 2.99978 12.4639 2.99997 11.996L3 11.8786V7.66486L3.00041 6.98594L3.00041 6.98544C3.00103 6.13474 3.00197 4.85697 3 4.58121C3.01318 4.12453 3.09176 3.6721 3.23334 3.23773C3.76698 1.32384 5.5103 0 7.497 0C9.48371 0 11.227 1.32384 11.7607 3.23773C11.886 3.67599 11.9642 4.12636 11.994 4.58121C12.0162 4.95305 12.0056 6.18533 11.9985 7.0055V7.0056C11.996 7.29569 11.994 7.53421 11.994 7.66486V11.8786H11.9933ZM14.167 10.3318C14.6269 10.332 14.9998 10.7048 15 11.1648C15 11.1864 14.9987 11.2081 14.9971 11.2293V13.282H14.9863C14.9889 17.1105 12.1282 20.3362 8.32715 20.7898V23.323H11.4668V23.3338L11.4723 23.3335L11.4724 23.3335C11.4816 23.3332 11.4908 23.3328 11.5 23.3328C11.9602 23.3328 12.333 23.7065 12.333 24.1668C12.3329 24.627 11.9602 24.9998 11.5 24.9998C11.4935 24.9998 11.487 24.9993 11.4806 24.9987C11.476 24.9984 11.4714 24.998 11.4668 24.9978V24.9998H3.53028V24.9978C3.52591 24.998 3.52154 24.9984 3.51716 24.9988L3.51713 24.9988C3.51144 24.9993 3.50574 24.9998 3.50001 24.9998C3.03983 24.9998 2.6671 24.627 2.667 24.1668C2.667 23.7065 3.03977 23.3328 3.50001 23.3328C3.50328 23.3328 3.50656 23.3328 3.50983 23.3329C3.51372 23.3331 3.51761 23.3332 3.5215 23.3334L3.53028 23.3338V23.323H6.67676V20.7898C2.86736 20.3471 -0.00463201 17.1174 5.60848e-06 13.282C1.18801e-05 13.262 0.00156311 13.2429 0.00307716 13.2242C0.00433289 13.2087 0.00556304 13.1936 0.00586498 13.1785V11.2625C0.0021562 11.2306 5.60848e-06 11.1977 5.60848e-06 11.1648C0.000228299 10.7048 0.373066 10.332 0.833013 10.3318C1.29311 10.3318 1.66678 10.7047 1.667 11.1648C1.667 11.1854 1.6653 11.2061 1.66365 11.2264L1.66309 11.2332V13.5418H1.65821V13.5486C1.65821 13.5642 1.65944 13.5798 1.66066 13.5954C1.66179 13.6098 1.66292 13.6241 1.66309 13.6384V13.9519H1.67872C1.9264 16.9158 4.35119 19.2266 7.32325 19.3299H7.66016C10.6334 19.2285 13.0599 16.9169 13.3066 13.9519H13.3272V11.1756L13.333 11.1746V11.1648C13.3332 10.7047 13.7069 10.3318 14.167 10.3318ZM10.3 13.4121C10.32 13.0921 10.3267 12.9854 10.3267 12.6654C10.3267 10.8081 10.3313 9.16012 10.335 7.84291C10.3402 6.00616 10.3436 4.81253 10.33 4.59121C10.3083 4.29951 10.2547 4.01109 10.17 3.73112C10.0104 3.14107 9.66282 2.61911 9.18 2.2443C8.19073 1.47532 6.80595 1.47532 5.81667 2.2443C5.33198 2.61801 4.98308 3.14026 4.82334 3.73112C4.7473 4.01238 4.69929 4.30048 4.68 4.59121C4.66254 4.82258 4.66509 6.31164 4.66893 8.55682C4.67095 9.74063 4.67334 11.1347 4.67334 12.6654C4.67334 12.9854 4.67667 13.0921 4.69334 13.4121C4.70648 13.7026 4.75005 13.9909 4.82334 14.2722C4.98308 14.8631 5.33198 15.3853 5.81667 15.759C6.80595 16.528 8.19073 16.528 9.18 15.759C9.66282 15.3842 10.0104 14.8623 10.17 14.2722C10.2449 13.9912 10.2885 13.7027 10.3 13.4121Z" fill="var(--fill-0, #272835)"/>
</svg>
