<svg preserveAspectRatio="none" width="100%" height="100%" overflow="visible" style="display: block;" viewBox="0 0 14 14" fill="none" xmlns="http://www.w3.org/2000/svg">
<g id="maximize">
<path id="Vector" d="M4.37493 1.75H2.62493C2.31551 1.75 2.01876 1.87292 1.79997 2.09171C1.58118 2.3105 1.45826 2.60725 1.45826 2.91667V4.66667" stroke="var(--stroke-0, white)" stroke-opacity="0.8" stroke-width="1.2" stroke-linecap="round" stroke-linejoin="round"/>
<path id="Vector_2" d="M12.5417 4.66667V2.91667C12.5417 2.60725 12.4188 2.3105 12.2 2.09171C11.9812 1.87292 11.6845 1.75 11.3751 1.75H9.62507" stroke="var(--stroke-0, white)" stroke-opacity="0.8" stroke-width="1.2" stroke-linecap="round" stroke-linejoin="round"/>
<path id="Vector_3" d="M1.45826 9.91724V11.6672C1.45826 11.9767 1.58118 12.2734 1.79997 12.4922C2.01876 12.711 2.31551 12.8339 2.62493 12.8339H4.37493" stroke="var(--stroke-0, white)" stroke-opacity="0.8" stroke-width="1.2" stroke-linecap="round" stroke-linejoin="round"/>
<path id="Vector_4" d="M9.62507 12.8339H11.3751C11.6845 12.8339 11.9812 12.711 12.2 12.4922C12.4188 12.2734 12.5417 11.9767 12.5417 11.6672V9.91724" stroke="var(--stroke-0, white)" stroke-opacity="0.8" stroke-width="1.2" stroke-linecap="round" stroke-linejoin="round"/>
</g>
</svg>
