<svg preserveAspectRatio="none" width="100%" height="100%" overflow="visible" style="display: block;" viewBox="0 0 21.5 21.5" fill="none" xmlns="http://www.w3.org/2000/svg">
<g id="Group">
<path id="Vector" d="M10.75 21.5C4.82 21.5 0 16.68 0 10.75C0 4.82 4.82 0 10.75 0C16.68 0 21.5 4.82 21.5 10.75C21.5 16.68 16.68 21.5 10.75 21.5ZM10.75 1.5C5.65 1.5 1.5 5.65 1.5 10.75C1.5 15.85 5.65 20 10.75 20C15.85 20 20 15.85 20 10.75C20 5.65 15.85 1.5 10.75 1.5Z" fill="var(--fill-0, #6A6A6A)"/>
<path id="Vector_2" d="M10.7501 14.3794C9.4301 14.3794 8.3501 13.2994 8.3501 11.9794V9.5094C8.3501 8.1894 9.4301 7.10938 10.7501 7.10938C12.0701 7.10938 13.1501 8.1894 13.1501 9.5094V11.9794C13.1501 13.3094 12.0701 14.3794 10.7501 14.3794ZM10.7501 8.61938C10.2601 8.61938 9.8501 9.0194 9.8501 9.5194V11.9894C9.8501 12.4894 10.2501 12.8894 10.7501 12.8894C11.2501 12.8894 11.6501 12.4894 11.6501 11.9894V9.5194C11.6501 9.0194 11.2401 8.61938 10.7501 8.61938Z" fill="var(--fill-0, #6A6A6A)"/>
<path id="Vector_3" d="M10.75 17.5697C7.58 17.5697 5 14.9897 5 11.8197V9.6797C5 6.50969 7.58 3.92969 10.75 3.92969C13.71 3.92969 16.17 6.14972 16.47 9.0897C16.51 9.4997 16.21 9.8697 15.8 9.9097C15.39 9.9597 15.02 9.6497 14.98 9.2397C14.76 7.06968 12.94 5.42969 10.75 5.42969C8.41 5.42969 6.5 7.33969 6.5 9.6797V11.8197C6.5 14.1597 8.41 16.0697 10.75 16.0697C12.95 16.0697 14.81 14.3497 14.99 12.1597C15.02 11.7497 15.38 11.4397 15.8 11.4697C16.21 11.4997 16.52 11.8597 16.49 12.2797C16.25 15.2497 13.73 17.5697 10.75 17.5697Z" fill="var(--fill-0, #6A6A6A)"/>
</g>
</svg>
