<svg preserveAspectRatio="none" width="100%" height="100%" overflow="visible" style="display: block;" viewBox="0 0 20.5 19.4444" fill="none" xmlns="http://www.w3.org/2000/svg">
<path id="Vector" d="M10.25 2.53249C9.05908 1.42086 8.13889 0.75 8.13889 0.75C8.13889 0.75 0.75 6.13681 0.75 11.675C0.75 17.2132 4.97222 18.6944 8.13889 18.6944C10.6878 18.6944 13.9205 17.7348 15.0849 14.4722M7.08333 15C5.72619 15 3.91667 14.3318 3.91667 11.8333M19.75 7.70425C19.75 10.962 17.3373 11.8333 15.5278 11.8333C13.7183 11.8333 11.3056 10.962 11.3056 7.70425C11.3056 6.77479 11.6492 5.85258 12.1405 5.00914C13.3711 2.89632 15.5278 1.27778 15.5278 1.27778C15.5278 1.27778 19.75 4.44649 19.75 7.70425Z" stroke="var(--stroke-0, #4979FB)" stroke-width="1.5" stroke-linecap="round" stroke-linejoin="round"/>
</svg>
