<svg preserveAspectRatio="none" width="100%" height="100%" overflow="visible" style="display: block;" viewBox="0 0 14.5009 14.5014" fill="none" xmlns="http://www.w3.org/2000/svg">
<g id="Group">
<path id="Vector" d="M6.5 0.668066H5.16667C1.83333 0.668066 0.5 2.0014 0.5 5.33473V9.33473C0.5 12.6681 1.83333 14.0014 5.16667 14.0014H9.16667C12.5 14.0014 13.8333 12.6681 13.8333 9.33473V8.0014" stroke="var(--stroke-0, white)" stroke-linecap="round" stroke-linejoin="round"/>
<path id="Vector_2" d="M9.86 1.34759L4.60667 6.60093C4.40667 6.80093 4.20667 7.19427 4.16667 7.48093L3.88 9.4876C3.77333 10.2143 4.28667 10.7209 5.01333 10.6209L7.02 10.3343C7.3 10.2943 7.69333 10.0943 7.9 9.89427L13.1533 4.64092C14.06 3.73425 14.4867 2.68092 13.1533 1.34759C11.82 0.0142528 10.7667 0.440919 9.86 1.34759Z" stroke="var(--stroke-0, white)" stroke-miterlimit="10" stroke-linecap="round" stroke-linejoin="round"/>
<path id="Vector_3" d="M9.10667 2.10166C9.55333 3.69499 10.8 4.94166 12.4 5.39499" stroke="var(--stroke-0, white)" stroke-miterlimit="10" stroke-linecap="round" stroke-linejoin="round"/>
</g>
</svg>
