<svg preserveAspectRatio="none" width="100%" height="100%" overflow="visible" style="display: block;" viewBox="0 0 16.25 17.9167" fill="none" xmlns="http://www.w3.org/2000/svg">
<g id="Group">
<path id="Vector" d="M4.79167 3.75C4.45 3.75 4.16667 3.46667 4.16667 3.125V0.625C4.16667 0.283333 4.45 1.58946e-07 4.79167 1.58946e-07C5.13333 1.58946e-07 5.41667 0.283333 5.41667 0.625V3.125C5.41667 3.46667 5.13333 3.75 4.79167 3.75Z" fill="var(--fill-0, #4979FB)"/>
<path id="Vector_2" d="M11.4583 3.75C11.1167 3.75 10.8333 3.46667 10.8333 3.125V0.625C10.8333 0.283333 11.1167 1.58946e-07 11.4583 1.58946e-07C11.8 1.58946e-07 12.0833 0.283333 12.0833 0.625V3.125C12.0833 3.46667 11.8 3.75 11.4583 3.75Z" fill="var(--fill-0, #4979FB)"/>
<path id="Vector_3" d="M5.20833 11.0419C5.1 11.0419 4.99167 11.0169 4.89167 10.9752C4.78333 10.9336 4.7 10.8752 4.61667 10.8002C4.46667 10.6419 4.375 10.4336 4.375 10.2086C4.375 10.1002 4.4 9.99192 4.44167 9.89192C4.48333 9.79192 4.54167 9.70025 4.61667 9.61692C4.7 9.54192 4.78333 9.48358 4.89167 9.44192C5.19167 9.31692 5.56667 9.38358 5.8 9.61692C5.95 9.77525 6.04167 9.99192 6.04167 10.2086C6.04167 10.2586 6.03333 10.3169 6.025 10.3752C6.01667 10.4252 6 10.4752 5.975 10.5252C5.95833 10.5752 5.93333 10.6252 5.9 10.6752C5.875 10.7169 5.83333 10.7586 5.8 10.8002C5.64167 10.9502 5.425 11.0419 5.20833 11.0419Z" fill="var(--fill-0, #4979FB)"/>
<path id="Vector_4" d="M8.125 11.0423C8.01667 11.0423 7.90833 11.0174 7.80833 10.9757C7.7 10.9341 7.61667 10.8757 7.53333 10.8007C7.38333 10.6423 7.29167 10.434 7.29167 10.209C7.29167 10.1007 7.31667 9.99233 7.35833 9.89233C7.4 9.79233 7.45833 9.70075 7.53333 9.61742C7.61667 9.54242 7.7 9.484 7.80833 9.44233C8.10833 9.309 8.48333 9.38408 8.71667 9.61742C8.86667 9.77575 8.95833 9.99233 8.95833 10.209C8.95833 10.259 8.95 10.3174 8.94167 10.3757C8.93333 10.4257 8.91667 10.4757 8.89167 10.5257C8.875 10.5757 8.85 10.6257 8.81667 10.6757C8.79167 10.7173 8.75 10.759 8.71667 10.8007C8.55833 10.9507 8.34167 11.0423 8.125 11.0423Z" fill="var(--fill-0, #4979FB)"/>
<path id="Vector_5" d="M11.0417 11.0423C10.9333 11.0423 10.825 11.0174 10.725 10.9757C10.6167 10.9341 10.5333 10.8757 10.45 10.8007C10.4167 10.759 10.3833 10.7173 10.35 10.6757C10.3167 10.6257 10.2917 10.5757 10.275 10.5257C10.25 10.4757 10.2333 10.4257 10.225 10.3757C10.2167 10.3174 10.2083 10.259 10.2083 10.209C10.2083 9.99233 10.3 9.77575 10.45 9.61742C10.5333 9.54242 10.6167 9.484 10.725 9.44233C11.0333 9.309 11.4 9.38408 11.6333 9.61742C11.7833 9.77575 11.875 9.99233 11.875 10.209C11.875 10.259 11.8667 10.3174 11.8583 10.3757C11.85 10.4257 11.8333 10.4757 11.8083 10.5257C11.7917 10.5757 11.7667 10.6257 11.7333 10.6757C11.7083 10.7173 11.6667 10.759 11.6333 10.8007C11.475 10.9507 11.2583 11.0423 11.0417 11.0423Z" fill="var(--fill-0, #4979FB)"/>
<path id="Vector_6" d="M5.20833 13.9577C5.1 13.9577 4.99167 13.9327 4.89167 13.891C4.79167 13.8493 4.7 13.791 4.61667 13.716C4.46667 13.5577 4.375 13.341 4.375 13.1243C4.375 13.016 4.4 12.9077 4.44167 12.8077C4.48333 12.6993 4.54167 12.6077 4.61667 12.5327C4.925 12.2243 5.49167 12.2243 5.8 12.5327C5.95 12.691 6.04167 12.9077 6.04167 13.1243C6.04167 13.341 5.95 13.5577 5.8 13.716C5.64167 13.866 5.425 13.9577 5.20833 13.9577Z" fill="var(--fill-0, #4979FB)"/>
<path id="Vector_7" d="M8.125 13.9577C7.90833 13.9577 7.69167 13.866 7.53333 13.716C7.38333 13.5577 7.29167 13.341 7.29167 13.1243C7.29167 13.016 7.31667 12.9077 7.35833 12.8077C7.4 12.6993 7.45833 12.6077 7.53333 12.5327C7.84167 12.2243 8.40833 12.2243 8.71667 12.5327C8.79167 12.6077 8.85 12.6993 8.89167 12.8077C8.93333 12.9077 8.95833 13.016 8.95833 13.1243C8.95833 13.341 8.86667 13.5577 8.71667 13.716C8.55833 13.866 8.34167 13.9577 8.125 13.9577Z" fill="var(--fill-0, #4979FB)"/>
<path id="Vector_8" d="M11.0417 13.9591C10.825 13.9591 10.6083 13.8674 10.45 13.7174C10.375 13.6424 10.3167 13.5507 10.275 13.4424C10.2333 13.3424 10.2083 13.2341 10.2083 13.1258C10.2083 13.0174 10.2333 12.9091 10.275 12.8091C10.3167 12.7007 10.375 12.6091 10.45 12.5341C10.6417 12.3424 10.9333 12.2508 11.2 12.3091C11.2583 12.3174 11.3083 12.3341 11.3583 12.3591C11.4083 12.3758 11.4583 12.4008 11.5083 12.4341C11.55 12.4591 11.5917 12.5007 11.6333 12.5341C11.7833 12.6924 11.875 12.9091 11.875 13.1258C11.875 13.3424 11.7833 13.5591 11.6333 13.7174C11.475 13.8674 11.2583 13.9591 11.0417 13.9591Z" fill="var(--fill-0, #4979FB)"/>
<path id="Vector_9" d="M15.2083 7.1582H1.04167C0.7 7.1582 0.416667 6.87487 0.416667 6.5332C0.416667 6.19153 0.7 5.9082 1.04167 5.9082H15.2083C15.55 5.9082 15.8333 6.19153 15.8333 6.5332C15.8333 6.87487 15.55 7.1582 15.2083 7.1582Z" fill="var(--fill-0, #4979FB)"/>
<path id="Vector_10" d="M11.4583 17.9167H4.79167C1.75 17.9167 0 16.1667 0 13.125V6.04167C0 3 1.75 1.25 4.79167 1.25H11.4583C14.5 1.25 16.25 3 16.25 6.04167V13.125C16.25 16.1667 14.5 17.9167 11.4583 17.9167ZM4.79167 2.5C2.40833 2.5 1.25 3.65833 1.25 6.04167V13.125C1.25 15.5083 2.40833 16.6667 4.79167 16.6667H11.4583C13.8417 16.6667 15 15.5083 15 13.125V6.04167C15 3.65833 13.8417 2.5 11.4583 2.5H4.79167Z" fill="var(--fill-0, #4979FB)"/>
</g>
</svg>
