<svg preserveAspectRatio="none" width="100%" height="100%" overflow="visible" style="display: block;" viewBox="0 0 16.8 21.5" fill="none" xmlns="http://www.w3.org/2000/svg">
<g id="Group">
<path id="Vector" d="M8.3999 15C5.7799 15 3.6499 12.87 3.6499 10.25V4.75C3.6499 2.13 5.7799 0 8.3999 0C11.0199 0 13.1499 2.13 13.1499 4.75V10.25C13.1499 12.87 11.0199 15 8.3999 15ZM8.3999 1.5C6.6099 1.5 5.1499 2.96 5.1499 4.75V10.25C5.1499 12.04 6.6099 13.5 8.3999 13.5C10.1899 13.5 11.6499 12.04 11.6499 10.25V4.75C11.6499 2.96 10.1899 1.5 8.3999 1.5Z" fill="var(--fill-0, #4979FB)"/>
<path id="Vector_2" d="M8.4 18.5004C3.77 18.5004 0 14.7304 0 10.1004V8.40039C0 7.99039 0.34 7.65039 0.75 7.65039C1.16 7.65039 1.5 7.99039 1.5 8.40039V10.1004C1.5 13.9004 4.6 17.0004 8.4 17.0004C12.2 17.0004 15.3 13.9004 15.3 10.1004V8.40039C15.3 7.99039 15.64 7.65039 16.05 7.65039C16.46 7.65039 16.8 7.99039 16.8 8.40039V10.1004C16.8 14.7304 13.03 18.5004 8.4 18.5004Z" fill="var(--fill-0, #4979FB)"/>
<path id="Vector_3" d="M9.79 5.93031C9.71 5.93031 9.62 5.92031 9.53 5.89031C8.8 5.62031 8 5.62031 7.27 5.89031C6.88 6.03031 6.45 5.83031 6.31002 5.44031C6.17002 5.05031 6.37002 4.62031 6.76 4.48031C7.82 4.10031 8.99 4.10031 10.05 4.48031C10.44 4.62031 10.64 5.05031 10.5 5.44031C10.38 5.74031 10.09 5.93031 9.79 5.93031Z" fill="var(--fill-0, #4979FB)"/>
<path id="Vector_4" d="M9.2 8.05031C9.13 8.05031 9.07 8.04031 9 8.02031C8.6 7.91031 8.19 7.91031 7.79 8.02031C7.39 8.13031 6.98 7.89031 6.87 7.49031C6.76 7.10031 7 6.69031 7.4 6.58031C8.05 6.40031 8.75 6.40031 9.4 6.58031C9.8 6.69031 10.04 7.10031 9.93 7.50031C9.84 7.83031 9.53 8.05031 9.2 8.05031Z" fill="var(--fill-0, #4979FB)"/>
<path id="Vector_5" d="M8.3999 21.5C7.9899 21.5 7.6499 21.16 7.6499 20.75V17.75C7.6499 17.34 7.9899 17 8.3999 17C8.8099 17 9.1499 17.34 9.1499 17.75V20.75C9.1499 21.16 8.8099 21.5 8.3999 21.5Z" fill="var(--fill-0, #4979FB)"/>
</g>
</svg>
