<svg preserveAspectRatio="none" width="100%" height="100%" overflow="visible" style="display: block;" viewBox="0 0 19.5 21.5" fill="none" xmlns="http://www.w3.org/2000/svg">
<g id="Group">
<path id="Vector" d="M5.75 4.5C5.34 4.5 5 4.16 5 3.75V0.75C5 0.34 5.34 0 5.75 0C6.16 0 6.5 0.34 6.5 0.75V3.75C6.5 4.16 6.16 4.5 5.75 4.5Z" fill="var(--fill-0, #32D583)"/>
<path id="Vector_2" d="M13.75 4.5C13.34 4.5 13 4.16 13 3.75V0.75C13 0.34 13.34 0 13.75 0C14.16 0 14.5 0.34 14.5 0.75V3.75C14.5 4.16 14.16 4.5 13.75 4.5Z" fill="var(--fill-0, #32D583)"/>
<path id="Vector_3" d="M12.75 12.5H4.75C4.34 12.5 4 12.16 4 11.75C4 11.34 4.34 11 4.75 11H12.75C13.16 11 13.5 11.34 13.5 11.75C13.5 12.16 13.16 12.5 12.75 12.5Z" fill="var(--fill-0, #32D583)"/>
<path id="Vector_4" d="M9.75 16.5H4.75C4.34 16.5 4 16.16 4 15.75C4 15.34 4.34 15 4.75 15H9.75C10.16 15 10.5 15.34 10.5 15.75C10.5 16.16 10.16 16.5 9.75 16.5Z" fill="var(--fill-0, #32D583)"/>
<path id="Vector_5" d="M12.75 21.5H6.75C1.13 21.5 0 18.85 0 14.57V8.4C0 3.66 1.6 1.73 5.71 1.5H13.75C13.76 1.5 13.78 1.5 13.79 1.5C17.9 1.73 19.5 3.66 19.5 8.4V14.57C19.5 18.85 18.37 21.5 12.75 21.5ZM5.75 3C2.95 3.16 1.5 4.04 1.5 8.4V14.57C1.5 18.4 2.23 20 6.75 20H12.75C17.27 20 18 18.4 18 14.57V8.4C18 4.05 16.56 3.16 13.73 3H5.75Z" fill="var(--fill-0, #32D583)"/>
</g>
</svg>
