<svg preserveAspectRatio="none" width="100%" height="100%" overflow="visible" style="display: block;" viewBox="0 0 19.7813 19.7262" fill="none" xmlns="http://www.w3.org/2000/svg">
<g id="Group">
<path id="Vector" d="M14.2345 16.9584H5.61784C4.93951 16.9584 4.25201 16.4725 4.02284 15.84L0.227834 5.21583C-0.239662 3.8775 0.0995005 3.26333 0.466167 2.98833C0.832834 2.71333 1.52034 2.54833 2.67534 3.37333L6.25033 5.93083C6.36033 5.995 6.46118 6.0225 6.53451 6.00417C6.61701 5.97667 6.68118 5.90333 6.72701 5.775L8.34031 1.47583C8.82614 0.1925 9.54114 0 9.92614 0C10.3111 0 11.0261 0.1925 11.512 1.47583L13.1253 5.775C13.1711 5.89417 13.2353 5.97667 13.3178 6.00417C13.4003 6.03167 13.5011 6.00417 13.602 5.92167L16.957 3.52917C18.1853 2.64917 18.9003 2.82333 19.2945 3.1075C19.6795 3.40083 20.037 4.05167 19.5328 5.4725L15.8295 15.84C15.6003 16.4725 14.9128 16.9584 14.2345 16.9584ZM1.38284 4.19833C1.40118 4.32667 1.43783 4.51 1.5295 4.74833L5.32451 15.3725C5.36118 15.4642 5.52618 15.5834 5.61784 15.5834H14.2345C14.3353 15.5834 14.5003 15.4642 14.5278 15.3725L18.2311 5.01417C18.3595 4.66583 18.3961 4.4275 18.4053 4.29C18.2678 4.33583 18.057 4.43667 17.7545 4.65667L14.3995 7.04917C13.9411 7.37 13.4003 7.47083 12.9145 7.32417C12.4286 7.1775 12.0345 6.7925 11.8328 6.27L10.2195 1.97083C10.1003 1.65 9.99031 1.49417 9.92614 1.42083C9.86197 1.49417 9.75197 1.65 9.63281 1.96167L8.01951 6.26083C7.82701 6.78333 7.43283 7.16833 6.93783 7.315C6.45201 7.46167 5.902 7.36083 5.45284 7.04L1.87784 4.4825C1.66701 4.33583 1.50201 4.24417 1.38284 4.19833Z" fill="var(--fill-0, #6A6A6A)"/>
<path id="Vector_2" d="M14.9679 19.7262H4.88456C4.50873 19.7262 4.19706 19.4146 4.19706 19.0387C4.19706 18.6629 4.50873 18.3512 4.88456 18.3512H14.9679C15.3437 18.3512 15.6554 18.6629 15.6554 19.0387C15.6554 19.4146 15.3437 19.7262 14.9679 19.7262Z" fill="var(--fill-0, #6A6A6A)"/>
<path id="Vector_3" d="M12.2179 12.3929H7.63456C7.25873 12.3929 6.94706 12.0812 6.94706 11.7054C6.94706 11.3296 7.25873 11.0179 7.63456 11.0179H12.2179C12.5937 11.0179 12.9054 11.3296 12.9054 11.7054C12.9054 12.0812 12.5937 12.3929 12.2179 12.3929Z" fill="var(--fill-0, #6A6A6A)"/>
</g>
</svg>
