<svg preserveAspectRatio="none" width="100%" height="100%" overflow="visible" style="display: block;" viewBox="0 0 20 21.5" fill="none" xmlns="http://www.w3.org/2000/svg">
<path id="Vector" d="M7.75 1.74988H8.75C9.85457 1.74988 10.75 2.64531 10.75 3.74988V7.75002C10.75 10.5114 8.51142 12.75 5.75 12.75M3.75 1.74988H2.75C1.64543 1.74988 0.75 2.6453 0.75 3.74987V7.75002C0.75 10.5114 2.98858 12.75 5.75 12.75M5.75 12.75V15.25C5.75 18.2876 8.21243 20.75 11.25 20.75C14.2876 20.75 16.75 18.2876 16.75 15.25V14.25M16.75 14.25C18.1307 14.25 19.25 13.1307 19.25 11.75C19.25 10.3693 18.1307 9.25002 16.75 9.25002C15.3693 9.25002 14.25 10.3693 14.25 11.75C14.25 13.1307 15.3693 14.25 16.75 14.25ZM7.74999 0.75L7.74997 2.7498M3.75 0.750018V2.75002" stroke="var(--stroke-0, #32D583)" stroke-width="1.5" stroke-linecap="round" stroke-linejoin="round"/>
</svg>
