<svg preserveAspectRatio="none" width="100%" height="100%" overflow="visible" style="display: block;" viewBox="0 0 21.5002 22" fill="none" xmlns="http://www.w3.org/2000/svg">
<path id="Vector" d="M2.75 21.25V16.823C2.75 15.9071 2.40701 15.035 1.94922 14.2417C1.18644 12.9198 0.75 11.3859 0.75 9.75C0.75 4.77944 4.77944 0.75 9.75 0.75C14.6561 0.75 18.6453 4.64691 18.748 10.0367C18.7506 10.1766 18.7794 10.3161 18.8362 10.4439L20.75 14.75L18.75 15.75C17.75 19.25 17.95 20.25 14.75 20.25C11.55 20.25 11.25 19.75 10.75 18.25M8.75 13.75C8.75 12.6454 9.64543 11.75 10.75 11.75C12.1307 11.75 13.25 10.6307 13.25 9.25M13.25 9.25C14.0784 9.25 14.75 8.57843 14.75 7.75C14.75 6.92157 14.0784 6.25 13.25 6.25C13.0369 6.25 12.8341 6.29445 12.6505 6.37458C12.7151 6.17806 12.75 5.96811 12.75 5.75C12.75 4.64543 11.8546 3.75 10.75 3.75C9.80347 3.75 9.01052 4.40753 8.80298 5.29073M13.25 9.25C12.8057 9.25 12.4066 9.05687 12.1319 8.75M4.96963 8.27616C4.2752 8.40745 3.75 9.01739 3.75 9.75C3.75 10.5784 4.42157 11.25 5.25 11.25C5.90311 11.25 6.45873 10.8326 6.66465 10.25M4.96963 8.27616C5.06046 8.25898 5.15418 8.25 5.25 8.25M4.96963 8.27616C4.82852 7.96307 4.75 7.61571 4.75 7.25C4.75 5.86929 5.86929 4.75 7.25 4.75C7.83684 4.75 8.37646 4.9522 8.80298 5.29073M8.80298 5.29073C9.37997 5.74869 9.75 6.45613 9.75 7.25" stroke="var(--stroke-0, #4979FB)" stroke-width="1.5" stroke-linecap="round" stroke-linejoin="round"/>
</svg>
