<svg preserveAspectRatio="none" width="100%" height="100%" overflow="visible" style="display: block;" viewBox="0 0 19.3201 21.5125" fill="none" xmlns="http://www.w3.org/2000/svg">
<g id="Group">
<path id="Vector" d="M9.65996 21.5125C9.41996 21.5125 9.18006 21.4825 8.95006 21.4125C3.76002 19.9825 0 15.1325 0 9.87252V5.48248C0 4.36248 0.81001 3.15253 1.85001 2.72253L7.42002 0.4425C8.87006 -0.1475 10.46 -0.1475 11.9 0.4425L17.47 2.72253C18.51 3.15253 19.3201 4.36248 19.3201 5.48248V9.87252C19.3201 15.1225 15.55 19.9725 10.37 21.4125C10.14 21.4825 9.89996 21.5125 9.65996 21.5125ZM9.65996 1.51251C9.08996 1.51251 8.52996 1.62253 7.98996 1.84253L2.42002 4.12249C1.94002 4.32249 1.5 4.97249 1.5 5.49249V9.88252C1.5 14.4725 4.80001 18.7125 9.34996 19.9725C9.54996 20.0325 9.76996 20.0325 9.96996 19.9725C14.52 18.7125 17.8201 14.4725 17.8201 9.88252V5.49249C17.8201 4.97249 17.38 4.32249 16.9 4.12249L11.3301 1.84253C10.7901 1.62253 10.23 1.51251 9.65996 1.51251Z" fill="var(--fill-0, #6A6A6A)"/>
</g>
</svg>
