<svg preserveAspectRatio="none" width="100%" height="100%" overflow="visible" style="display: block;" viewBox="0 0 21.5 21.5" fill="none" xmlns="http://www.w3.org/2000/svg">
<g id="Group">
<path id="Vector" d="M10.75 21.5C4.82 21.5 0 16.68 0 10.75C0 4.82 4.82 0 10.75 0C16.68 0 21.5 4.82 21.5 10.75C21.5 16.68 16.68 21.5 10.75 21.5ZM10.75 1.5C5.65 1.5 1.5 5.65 1.5 10.75C1.5 15.85 5.65 20 10.75 20C15.85 20 20 15.85 20 10.75C20 5.65 15.85 1.5 10.75 1.5Z" fill="var(--fill-0, #6A6A6A)"/>
<path id="Vector_2" d="M14.4599 14.6798C14.3299 14.6798 14.1999 14.6498 14.0799 14.5698L10.9799 12.7198C10.2099 12.2598 9.6399 11.2498 9.6399 10.3598V6.25977C9.6399 5.84977 9.9799 5.50977 10.3899 5.50977C10.7999 5.50977 11.1399 5.84977 11.1399 6.25977V10.3598C11.1399 10.7198 11.4399 11.2498 11.7499 11.4298L14.8499 13.2798C15.2099 13.4898 15.3199 13.9498 15.1099 14.3098C14.9599 14.5498 14.7099 14.6798 14.4599 14.6798Z" fill="var(--fill-0, #6A6A6A)"/>
</g>
</svg>
