<svg preserveAspectRatio="none" width="100%" height="100%" overflow="visible" style="display: block;" viewBox="0 0 14.6667 14.6667" fill="none" xmlns="http://www.w3.org/2000/svg">
<g id="Star">
<path id="Star 2" d="M6.3052 1.70863C6.77159 0.933645 7.89515 0.933644 8.36154 1.70863L9.48507 3.57555C9.65262 3.85396 9.92592 4.05252 10.2425 4.12584L12.3652 4.61747C13.2464 4.82155 13.5936 5.89012 13.0007 6.57316L11.5723 8.21861C11.3593 8.464 11.2549 8.78528 11.283 9.10901L11.4714 11.2798C11.5496 12.1809 10.6406 12.8413 9.80778 12.4885L7.80148 11.6385C7.50228 11.5117 7.16447 11.5117 6.86527 11.6385L4.85897 12.4885C4.02612 12.8413 3.11715 12.1809 3.19535 11.2798L3.38374 9.10901C3.41184 8.78528 3.30745 8.464 3.09444 8.21861L1.66608 6.57317C1.07315 5.89012 1.42035 4.82155 2.30153 4.61747L4.42426 4.12584C4.74082 4.05252 5.01412 3.85396 5.18168 3.57555L6.3052 1.70863Z" stroke="var(--stroke-0, #FEBD59)" stroke-width="1.5"/>
</g>
</svg>
