<svg preserveAspectRatio="none" width="100%" height="100%" overflow="visible" style="display: block;" viewBox="0 0 17.9177 17.9021" fill="none" xmlns="http://www.w3.org/2000/svg">
<g id="Group">
<path id="Vector" d="M8.97082 17.9021C8.44582 17.9021 7.92915 17.7271 7.52082 17.3771L6.20417 16.2521C6.07083 16.1354 5.7375 16.0187 5.5625 16.0187H4.10417C2.87083 16.0187 1.87083 15.0187 1.87083 13.7854V12.3604C1.87083 12.1854 1.75417 11.8521 1.64583 11.7271L0.5125 10.3937C-0.170833 9.58541 -0.170833 8.31874 0.5125 7.50208L1.64583 6.16875C1.75417 6.04375 1.87083 5.71042 1.87083 5.53542V4.11875C1.87083 2.88542 2.87083 1.88542 4.10417 1.88542H5.54583C5.72083 1.88542 6.04583 1.76042 6.1875 1.64375L7.50415 0.51875C8.32082 -0.172917 9.59581 -0.172917 10.4125 0.51875L11.7291 1.64375C11.8625 1.76042 12.2041 1.87708 12.3791 1.87708H13.7958C15.0291 1.87708 16.0291 2.87708 16.0291 4.11042V5.52708C16.0291 5.70208 16.1541 6.02708 16.2708 6.16875L17.3958 7.48541C18.0958 8.31041 18.0875 9.58541 17.3958 10.3937L16.2708 11.7104C16.1541 11.8521 16.0375 12.1771 16.0375 12.3521V13.7687C16.0375 15.0021 15.0375 16.0021 13.8041 16.0021H12.3875C12.2125 16.0021 11.8875 16.1271 11.7375 16.2437L10.4208 17.3687C10.0125 17.7271 9.48748 17.9021 8.97082 17.9021ZM4.10417 3.13542C3.5625 3.13542 3.12083 3.57708 3.12083 4.11875V5.53542C3.12083 6.01042 2.90417 6.61042 2.59583 6.97708L1.4625 8.31041C1.17917 8.65208 1.17917 9.25208 1.4625 9.58541L2.5875 10.9104C2.8875 11.2521 3.1125 11.8771 3.1125 12.3521V13.7771C3.1125 14.3187 3.55417 14.7604 4.09583 14.7604H5.54583C6.0125 14.7604 6.62917 14.9854 6.99583 15.2937L8.32081 16.4271C8.66248 16.7187 9.26248 16.7187 9.60415 16.4271L10.9208 15.3021C11.2958 14.9854 11.9041 14.7687 12.3708 14.7687H13.7875C14.3291 14.7687 14.7708 14.3271 14.7708 13.7854V12.3687C14.7708 11.9021 14.9958 11.2937 15.3041 10.9187L16.4375 9.59374C16.7291 9.25208 16.7291 8.65208 16.4375 8.31041L15.3125 6.99375C14.9958 6.61875 14.7791 6.01042 14.7791 5.54375V4.11875C14.7791 3.57708 14.3375 3.13542 13.7958 3.13542H12.3791C11.9041 3.13542 11.2875 2.91042 10.9208 2.60208L9.59582 1.46875C9.25415 1.17708 8.66248 1.17708 8.31248 1.46875L7.00417 2.60208C6.62917 2.91042 6.02083 3.13542 5.54583 3.13542H4.10417Z" fill="var(--fill-0, #674AF8)"/>
<path id="Vector_2" d="M8.9624 13.0094C8.50407 13.0094 8.12907 12.6344 8.12907 12.1761C8.12907 11.7177 8.49573 11.3427 8.9624 11.3427C9.42073 11.3427 9.79573 11.7177 9.79573 12.1761C9.79573 12.6344 9.42907 13.0094 8.9624 13.0094Z" fill="var(--fill-0, #674AF8)"/>
<path id="Vector_3" d="M8.9624 10.3859C8.62073 10.3859 8.3374 10.1026 8.3374 9.76091V5.72754C8.3374 5.38588 8.62073 5.10254 8.9624 5.10254C9.30407 5.10254 9.5874 5.38588 9.5874 5.72754V9.75258C9.5874 10.1026 9.3124 10.3859 8.9624 10.3859Z" fill="var(--fill-0, #674AF8)"/>
</g>
</svg>
