<svg preserveAspectRatio="none" width="100%" height="100%" overflow="visible" style="display: block;" viewBox="0 0 21.5 21.5" fill="none" xmlns="http://www.w3.org/2000/svg">
<g id="Group">
<path id="Vector" d="M10.75 21.5C4.82 21.5 0 16.68 0 10.75C0 4.82 4.82 0 10.75 0C16.68 0 21.5 4.82 21.5 10.75C21.5 16.68 16.68 21.5 10.75 21.5ZM10.75 1.5C5.65 1.5 1.5 5.65 1.5 10.75C1.5 15.85 5.65 20 10.75 20C15.85 20 20 15.85 20 10.75C20 5.65 15.85 1.5 10.75 1.5Z" fill="var(--fill-0, #6A6A6A)"/>
<path id="Vector_2" d="M7.74999 20.5H6.74999C6.33999 20.5 5.99999 20.16 5.99999 19.75C5.99999 19.34 6.31999 19.01 6.72999 19C5.15999 13.64 5.15999 7.86 6.72999 2.5C6.31999 2.49 5.99999 2.16 5.99999 1.75C5.99999 1.34 6.33999 1 6.74999 1H7.74999C7.98999 1 8.21999 1.12 8.35999 1.31C8.49999 1.51 8.53999 1.76 8.45999 1.99C6.57999 7.64 6.57999 13.86 8.45999 19.52C8.53999 19.75 8.49999 20 8.35999 20.2C8.21999 20.38 7.98999 20.5 7.74999 20.5Z" fill="var(--fill-0, #6A6A6A)"/>
<path id="Vector_3" d="M13.7499 20.5007C13.6699 20.5007 13.5899 20.4907 13.5099 20.4607C13.1199 20.3307 12.8999 19.9007 13.0399 19.5107C14.9199 13.8607 14.9199 7.64067 13.0399 1.98067C12.9099 1.59067 13.1199 1.16067 13.5099 1.03067C13.9099 0.90067 14.3299 1.11067 14.4599 1.50067C16.4499 7.46067 16.4499 14.0207 14.4599 19.9707C14.3599 20.3007 14.0599 20.5007 13.7499 20.5007Z" fill="var(--fill-0, #6A6A6A)"/>
<path id="Vector_4" d="M10.75 15.9508C7.96 15.9508 5.18 15.5608 2.5 14.7708C2.49 15.1708 2.16 15.5008 1.75 15.5008C1.34 15.5008 1 15.1608 1 14.7508V13.7508C1 13.5108 1.12 13.2808 1.31 13.1408C1.51 13.0008 1.76 12.9608 1.99 13.0408C7.64 14.9208 13.87 14.9208 19.52 13.0408C19.75 12.9608 20 13.0008 20.2 13.1408C20.4 13.2808 20.51 13.5108 20.51 13.7508V14.7508C20.51 15.1608 20.17 15.5008 19.76 15.5008C19.35 15.5008 19.02 15.1808 19.01 14.7708C16.32 15.5608 13.54 15.9508 10.75 15.9508Z" fill="var(--fill-0, #6A6A6A)"/>
<path id="Vector_5" d="M19.75 8.49938C19.67 8.49938 19.59 8.48938 19.51 8.45938C13.86 6.57938 7.63003 6.57938 1.98003 8.45938C1.58003 8.58938 1.16003 8.37937 1.03003 7.98937C0.91003 7.58937 1.12003 7.16938 1.51003 7.03938C7.47003 5.04938 14.03 5.04938 19.98 7.03938C20.37 7.16938 20.59 7.59937 20.45 7.98937C20.36 8.29937 20.06 8.49938 19.75 8.49938Z" fill="var(--fill-0, #6A6A6A)"/>
</g>
</svg>
