<svg preserveAspectRatio="none" width="100%" height="100%" overflow="visible" style="display: block;" viewBox="0 0 17.5 22" fill="none" xmlns="http://www.w3.org/2000/svg">
<path id="Vector" d="M5.75 13.75H11.75M8.75 10.75V16.75M15.4127 8.18981C16.2757 9.1966 16.75 10.4789 16.75 11.8049V19.25C16.75 20.3546 15.8546 21.25 14.75 21.25H2.75C1.64543 21.25 0.75 20.3546 0.75 19.25V11.8049C0.75 10.4789 1.22434 9.1966 2.0873 8.18981C3.14263 6.9586 4.68328 6.25 6.30489 6.25H11.1951C12.8167 6.25 14.3574 6.9586 15.4127 8.18981ZM5.25 3.75H12.25C13.0784 3.75 13.75 3.07843 13.75 2.25C13.75 1.42157 13.0784 0.75 12.25 0.75H5.25C4.42157 0.75 3.75 1.42157 3.75 2.25C3.75 3.07843 4.42157 3.75 5.25 3.75Z" stroke="var(--stroke-0, #4979FB)" stroke-width="1.5" stroke-linecap="round" stroke-linejoin="round"/>
</svg>
