<svg preserveAspectRatio="none" width="100%" height="100%" overflow="visible" style="display: block;" viewBox="0 0 13.9946 13" fill="none" xmlns="http://www.w3.org/2000/svg">
<path id="Vector" d="M8.33061 12.5V7.81248M8.33061 7.81248C9.18236 6.84624 9.66394 5.03305 9.66394 3.5C9.66394 1.29086 8.99727 0.5 6.99727 0.5C4.99727 0.5 4.3306 1.29086 4.3306 3.5C4.3306 5.03305 4.81218 6.84624 5.66394 7.81248M8.33061 7.81248C7.95497 8.2386 7.50734 8.5 6.99727 8.5C6.4872 8.5 6.03957 8.2386 5.66394 7.81248M5.66394 12.5V7.81248M9.45106 1.83333C10.1177 1.16667 11.1177 0.833321 12.1177 1.16665C14.3981 1.92675 13.4511 5.49997 12.1177 5.16663C10.7844 4.8333 11.7844 2.16667 13.4511 2.83333M4.54353 1.83333C3.87686 1.16667 2.87686 0.83332 1.87686 1.16665C-0.403493 1.92675 0.54353 5.49997 1.87686 5.16663C3.2102 4.8333 2.2102 2.16667 0.543529 2.83333" stroke="var(--stroke-0, white)" stroke-linecap="round" stroke-linejoin="round"/>
</svg>
