<svg preserveAspectRatio="none" width="100%" height="100%" overflow="visible" style="display: block;" viewBox="0 0 21.5 21.5" fill="none" xmlns="http://www.w3.org/2000/svg">
<g id="Group">
<path id="Vector" d="M10.75 21.5C4.83 21.5 0 16.68 0 10.75C0 4.82 4.83 0 10.75 0C16.67 0 21.5 4.82 21.5 10.75C21.5 16.68 16.68 21.5 10.75 21.5ZM10.75 1.5C5.65 1.5 1.5 5.65 1.5 10.75C1.5 15.85 5.65 20 10.75 20C15.85 20 20 15.85 20 10.75C20 5.65 15.85 1.5 10.75 1.5Z" fill="var(--fill-0, #6A6A6A)"/>
<path id="Vector_2" d="M10.78 16C7.88003 16 5.53003 13.64 5.53003 10.75C5.53003 7.86 7.88003 5.5 10.78 5.5C13.68 5.5 16.03 7.86 16.03 10.75C16.03 13.64 13.68 16 10.78 16ZM10.78 7C8.71003 7 7.03003 8.68 7.03003 10.75C7.03003 12.82 8.71003 14.5 10.78 14.5C12.85 14.5 14.53 12.82 14.53 10.75C14.53 8.68 12.85 7 10.78 7Z" fill="var(--fill-0, #6A6A6A)"/>
<path id="Vector_3" d="M7.22012 7.95914C7.03012 7.95914 6.83012 7.88914 6.69012 7.74914L3.15012 4.20914C2.86012 3.91914 2.86012 3.43914 3.15012 3.14914C3.44012 2.85914 3.92012 2.85914 4.21012 3.14914L7.75012 6.68914C8.04012 6.97914 8.04012 7.44914 7.75012 7.74914C7.60012 7.88914 7.41012 7.95914 7.22012 7.95914Z" fill="var(--fill-0, #6A6A6A)"/>
<path id="Vector_4" d="M3.68012 18.5707C3.49012 18.5707 3.30012 18.5007 3.15012 18.3507C2.86012 18.0607 2.86012 17.5807 3.15012 17.2907L6.69012 13.7507C6.98012 13.4607 7.46012 13.4607 7.75012 13.7507C8.04012 14.0407 8.04012 14.5207 7.75012 14.8107L4.21012 18.3507C4.07012 18.5007 3.87012 18.5707 3.68012 18.5707Z" fill="var(--fill-0, #6A6A6A)"/>
<path id="Vector_5" d="M17.8199 18.5707C17.6299 18.5707 17.4399 18.5007 17.2899 18.3507L13.7499 14.8107C13.4599 14.5207 13.4599 14.0407 13.7499 13.7507C14.0399 13.4607 14.5199 13.4607 14.8099 13.7507L18.3499 17.2907C18.6399 17.5807 18.6399 18.0607 18.3499 18.3507C18.2099 18.5007 18.0199 18.5707 17.8199 18.5707Z" fill="var(--fill-0, #6A6A6A)"/>
<path id="Vector_6" d="M14.29 7.95938C14.1 7.95938 13.91 7.88938 13.76 7.73938C13.47 7.44938 13.47 6.96938 13.76 6.67937L17.3 3.13938C17.59 2.84938 18.07 2.84938 18.36 3.13938C18.65 3.42937 18.65 3.90937 18.36 4.19937L14.82 7.74938C14.67 7.88938 14.48 7.95938 14.29 7.95938Z" fill="var(--fill-0, #6A6A6A)"/>
</g>
</svg>
