<svg preserveAspectRatio="none" width="100%" height="100%" overflow="visible" style="display: block;" viewBox="0 0 17.9167 17.9167" fill="none" xmlns="http://www.w3.org/2000/svg">
<g id="Group">
<path id="Vector" d="M8.95833 17.9167C4.01667 17.9167 0 13.9 0 8.95833C0 4.01667 4.01667 0 8.95833 0C13.9 0 17.9167 4.01667 17.9167 8.95833C17.9167 13.9 13.9 17.9167 8.95833 17.9167ZM8.95833 1.25C4.70833 1.25 1.25 4.70833 1.25 8.95833C1.25 13.2083 4.70833 16.6667 8.95833 16.6667C13.2083 16.6667 16.6667 13.2083 16.6667 8.95833C16.6667 4.70833 13.2083 1.25 8.95833 1.25Z" fill="var(--fill-0, #32D583)"/>
<path id="Vector_2" d="M7.77492 11.9413C7.60825 11.9413 7.44992 11.8747 7.33325 11.758L4.97495 9.39967C4.73328 9.158 4.73328 8.758 4.97495 8.51633C5.21662 8.27467 5.61662 8.27467 5.85828 8.51633L7.77492 10.433L12.0583 6.14967C12.2999 5.90801 12.6999 5.90801 12.9416 6.14967C13.1833 6.39134 13.1833 6.79134 12.9416 7.03301L8.21658 11.758C8.09992 11.8747 7.94158 11.9413 7.77492 11.9413Z" fill="var(--fill-0, #32D583)"/>
</g>
</svg>
