<svg preserveAspectRatio="none" width="100%" height="100%" overflow="visible" style="display: block;" viewBox="0 0 13.5 22.5" fill="none" xmlns="http://www.w3.org/2000/svg">
<path id="Vector" d="M3.25 7V10.75M3.25 7C3.25 6.30964 2.69036 5.75 2 5.75C1.30964 5.75 0.75 6.30964 0.75 7V15.75C0.75 19.0637 3.43629 21.75 6.75 21.75C10.0637 21.75 12.75 19.0637 12.75 15.75V9C12.75 8.30964 12.1904 7.75 11.5 7.75C11.2186 7.75 10.9589 7.84299 10.75 7.99991M3.25 7V3C3.25 2.30964 3.80964 1.75 4.5 1.75C5.19036 1.75 5.75 2.30964 5.75 3M5.75 3V8.75M5.75 3V2C5.75 1.30964 6.30964 0.75 7 0.75C7.69036 0.75 8.25 1.30964 8.25 2V4M8.25 4V8.75M8.25 4C8.25 3.30964 8.80964 2.75 9.5 2.75C10.1904 2.75 10.75 3.30964 10.75 4V7.99991M10.75 7.99991C10.4464 8.22796 10.25 8.59105 10.25 9V11.75C8.95337 12.2619 8.01266 13.4221 7.79697 14.836" stroke="var(--stroke-0, #4979FB)" stroke-width="1.5" stroke-linecap="round" stroke-linejoin="round"/>
</svg>
