<svg preserveAspectRatio="none" width="100%" height="100%" overflow="visible" style="display: block;" viewBox="0 0 23.7857 23.7857" fill="none" xmlns="http://www.w3.org/2000/svg">
<g id="Group">
<path id="Vector" d="M6.89288 15.8926H16.8929" stroke="var(--stroke-0, #4979FB)" stroke-width="1.5" stroke-linecap="round" stroke-linejoin="round"/>
<path id="Vector_2" d="M11.8929 23.0357C18.0469 23.0357 23.0357 18.0469 23.0357 11.8929C23.0357 5.73883 18.0469 0.75 11.8929 0.75C5.73883 0.75 0.75 5.73883 0.75 11.8929C0.75 18.0469 5.73883 23.0357 11.8929 23.0357Z" stroke="var(--stroke-0, #4979FB)" stroke-width="1.5" stroke-linecap="round" stroke-linejoin="round"/>
<path id="Vector_3" d="M8.12143 9.15C7.93207 9.15 7.77857 8.9965 7.77857 8.80714C7.77857 8.61779 7.93207 8.46429 8.12143 8.46429" stroke="var(--stroke-0, #4979FB)" stroke-width="1.5" stroke-linecap="round" stroke-linejoin="round"/>
<path id="Vector_4" d="M8.12143 9.15C8.31078 9.15 8.46429 8.9965 8.46429 8.80714C8.46429 8.61779 8.31078 8.46429 8.12143 8.46429" stroke="var(--stroke-0, #4979FB)" stroke-width="1.5" stroke-linecap="round" stroke-linejoin="round"/>
<path id="Vector_5" d="M15.6643 9.15C15.4749 9.15 15.3214 8.9965 15.3214 8.80714C15.3214 8.61779 15.4749 8.46429 15.6643 8.46429" stroke="var(--stroke-0, #4979FB)" stroke-width="1.5" stroke-linecap="round" stroke-linejoin="round"/>
<path id="Vector_6" d="M15.6643 9.15C15.8536 9.15 16.0071 8.9965 16.0071 8.80714C16.0071 8.61779 15.8536 8.46429 15.6643 8.46429" stroke="var(--stroke-0, #4979FB)" stroke-width="1.5" stroke-linecap="round" stroke-linejoin="round"/>
</g>
</svg>
