<svg preserveAspectRatio="none" width="100%" height="100%" overflow="visible" style="display: block;" viewBox="0 0 14.8332 14.8342" fill="none" xmlns="http://www.w3.org/2000/svg">
<path id="Vector" d="M8.79902 2.00697C9.29582 1.46872 9.54422 1.1996 9.80816 1.04262C10.445 0.66384 11.2293 0.65206 11.8768 1.01155C12.1452 1.16053 12.4012 1.42208 12.9132 1.94517C13.4253 2.46827 13.6814 2.72981 13.8272 3.00395C14.1791 3.66541 14.1676 4.46653 13.7968 5.11713C13.6431 5.38677 13.3796 5.64052 12.8528 6.148L6.58362 12.1862C5.58514 13.1479 5.08589 13.6288 4.46193 13.8725C3.83797 14.1162 3.15202 14.0983 1.78013 14.0624L1.59348 14.0575C1.17583 14.0466 0.967002 14.0411 0.845616 13.9033C0.724222 13.7656 0.740796 13.5529 0.773942 13.1275L0.791942 12.8965C0.885229 11.699 0.931869 11.1003 1.1657 10.5621C1.39952 10.0239 1.80285 9.587 2.60951 8.713L8.79902 2.00697Z" stroke="var(--stroke-0, white)" stroke-width="1.5" stroke-linejoin="round"/>
</svg>
