<svg preserveAspectRatio="none" width="100%" height="100%" overflow="visible" style="display: block;" viewBox="0 0 21.54 21.5" fill="none" xmlns="http://www.w3.org/2000/svg">
<g id="Group">
<path id="Vector" d="M13.75 21.5H7.75C2.32 21.5 0 19.18 0 13.75V7.75C0 2.32 2.32 0 7.75 0H13.75C19.18 0 21.5 2.32 21.5 7.75V13.75C21.5 19.18 19.19 21.5 13.75 21.5ZM7.75 1.5C3.14 1.5 1.5 3.14 1.5 7.75V13.75C1.5 18.36 3.14 20 7.75 20H13.75C18.36 20 20 18.36 20 13.75V7.75C20 3.14 18.36 1.5 13.75 1.5H7.75Z" fill="var(--fill-0, #6A6A6A)"/>
<path id="Vector_2" d="M10.23 16.8109C9.99003 16.8109 9.41003 16.7209 9.07003 15.8509L7.93002 12.9709C7.77002 12.5609 7.20002 12.1809 6.77002 12.1809L0.77002 12.2009C0.36002 12.2009 0.02002 11.8709 0.02002 11.4509C0.02002 11.0409 0.35002 10.7009 0.77002 10.7009L6.77002 10.6809H6.78002C7.83002 10.6809 8.95003 11.4409 9.34003 12.4209L10.25 14.7209L12.31 9.5009C12.62 8.72086 13.17 8.61086 13.4 8.59086C13.63 8.58086 14.19 8.63086 14.58 9.3709L15.62 11.3409C15.8 11.6809 16.34 12.0109 16.73 12.0109H20.79C21.2 12.0109 21.54 12.3509 21.54 12.7609C21.54 13.1709 21.2 13.5109 20.79 13.5109H16.73C15.78 13.5109 14.74 12.8809 14.3 12.0409L13.52 10.5609L11.42 15.8509C11.05 16.7109 10.46 16.8109 10.23 16.8109Z" fill="var(--fill-0, #6A6A6A)"/>
</g>
</svg>
