<svg preserveAspectRatio="none" width="100%" height="100%" overflow="visible" style="display: block;" viewBox="0 0 21.5 21.5" fill="none" xmlns="http://www.w3.org/2000/svg">
<g id="Group">
<path id="Vector" d="M7.75 16.5C7.65 16.5 7.56 16.48 7.46 16.44C7.18 16.33 7 16.05 7 15.75V9.75C7 9.34 7.34 9 7.75 9C8.16 9 8.5 9.34 8.5 9.75V13.94L9.22 13.22C9.51 12.93 9.99 12.93 10.28 13.22C10.57 13.51 10.57 13.99 10.28 14.28L8.28 16.28C8.14 16.42 7.94 16.5 7.75 16.5Z" fill="var(--fill-0, #6A6A6A)"/>
<path id="Vector_2" d="M7.74994 16.4995C7.55994 16.4995 7.36994 16.4295 7.21994 16.2795L5.21994 14.2795C4.92994 13.9895 4.92994 13.5095 5.21994 13.2195C5.50994 12.9295 5.98994 12.9295 6.27994 13.2195L8.27994 15.2195C8.56994 15.5095 8.56994 15.9895 8.27994 16.2795C8.12994 16.4295 7.93994 16.4995 7.74994 16.4995Z" fill="var(--fill-0, #6A6A6A)"/>
<path id="Vector_3" d="M13.75 21.5H7.75C2.32 21.5 0 19.18 0 13.75V7.75C0 2.32 2.32 0 7.75 0H12.75C13.16 0 13.5 0.34 13.5 0.75C13.5 1.16 13.16 1.5 12.75 1.5H7.75C3.14 1.5 1.5 3.14 1.5 7.75V13.75C1.5 18.36 3.14 20 7.75 20H13.75C18.36 20 20 18.36 20 13.75V8.75C20 8.34 20.34 8 20.75 8C21.16 8 21.5 8.34 21.5 8.75V13.75C21.5 19.18 19.18 21.5 13.75 21.5Z" fill="var(--fill-0, #6A6A6A)"/>
<path id="Vector_4" d="M20.75 9.5005H16.75C13.33 9.5005 12 8.17048 12 4.75048V0.75048C12 0.45048 12.18 0.17048 12.46 0.06048C12.74 -0.05952 13.06 0.0104799 13.28 0.22048L21.28 8.22048C21.49 8.43048 21.56 8.7605 21.44 9.0405C21.32 9.3205 21.05 9.5005 20.75 9.5005ZM13.5 2.56048V4.75048C13.5 7.33048 14.17 8.00048 16.75 8.00048H18.94L13.5 2.56048Z" fill="var(--fill-0, #6A6A6A)"/>
</g>
</svg>
