<svg preserveAspectRatio="none" width="100%" height="100%" overflow="visible" style="display: block;" viewBox="0 0 72 72" fill="none" xmlns="http://www.w3.org/2000/svg">
<g id="Progress">
<path id="Ellipse 2" d="M72 36C72 55.8823 55.8823 72 36 72C16.1177 72 0 55.8823 0 36C0 16.1177 16.1177 0 36 0C55.8823 0 72 16.1177 72 36ZM6.95111 36C6.95111 52.0433 19.9567 65.0489 36 65.0489C52.0433 65.0489 65.0489 52.0433 65.0489 36C65.0489 19.9567 52.0433 6.95111 36 6.95111C19.9567 6.95111 6.95111 19.9567 6.95111 36Z" fill="var(--fill-0, #DBE4FE)"/>
<path id="Ellipse 3" d="M36 3.47556C36 1.55606 37.5596 -0.0173879 39.4702 0.167641C43.0076 0.510226 46.4814 1.3754 49.7766 2.74034C54.1443 4.54951 58.1129 7.20125 61.4559 10.5442C64.7988 13.8871 67.4505 17.8557 69.2597 22.2234C71.0688 26.5911 72 31.2724 72 36C72 40.7276 71.0688 45.4089 69.2596 49.7766C67.4505 54.1444 64.7987 58.113 61.4558 61.4559C58.1129 64.7988 54.1443 67.4505 49.7766 69.2597C46.4813 70.6246 43.0076 71.4898 39.4701 71.8324C37.5596 72.0174 35.9999 70.4439 35.9999 68.5244V68.5244C35.9999 66.6049 37.5615 65.0703 39.4672 64.8412C42.091 64.5258 44.665 63.8531 47.1165 62.8377C50.6409 61.3778 53.8432 59.2381 56.5406 56.5407C59.2381 53.8433 61.3778 50.6409 62.8377 47.1166C64.2975 43.5922 65.0489 39.8148 65.0489 36C65.0489 32.1853 64.2975 28.4079 62.8377 24.8835C61.3778 21.3591 59.2381 18.1568 56.5407 15.4593C53.8432 12.7619 50.6409 10.6222 47.1165 9.16233C44.665 8.14688 42.0911 7.47422 39.4673 7.15879C37.5615 6.92967 36 5.39505 36 3.47556V3.47556Z" fill="var(--fill-0, #4979FB)"/>
</g>
</svg>
