<svg preserveAspectRatio="none" width="100%" height="100%" overflow="visible" style="display: block;" viewBox="0 0 14.3342 14.3217" fill="none" xmlns="http://www.w3.org/2000/svg">
<g id="Group">
<path id="Vector" d="M7.17665 14.3217C6.75665 14.3217 6.34332 14.1817 6.01665 13.9017L4.96333 13.0017C4.85667 12.9083 4.59 12.815 4.45 12.815H3.28333C2.29667 12.815 1.49667 12.015 1.49667 11.0283V9.88833C1.49667 9.74833 1.40333 9.48166 1.31667 9.38166L0.41 8.31499C-0.136667 7.66833 -0.136667 6.65499 0.41 6.00166L1.31667 4.935C1.40333 4.835 1.49667 4.56833 1.49667 4.42833V3.295C1.49667 2.30833 2.29667 1.50833 3.28333 1.50833H4.43667C4.57667 1.50833 4.83667 1.40833 4.95 1.315L6.00332 0.415C6.65665 -0.138333 7.67665 -0.138333 8.32998 0.415L9.38332 1.315C9.48998 1.40833 9.76332 1.50167 9.90332 1.50167H11.0367C12.0233 1.50167 12.8233 2.30167 12.8233 3.28833V4.42167C12.8233 4.56167 12.9233 4.82167 13.0166 4.935L13.9166 5.98833C14.4766 6.64833 14.47 7.66833 13.9166 8.31499L13.0166 9.36833C12.9233 9.48166 12.83 9.74166 12.83 9.88166V11.015C12.83 12.0017 12.03 12.8017 11.0433 12.8017H9.90998C9.76998 12.8017 9.50998 12.9017 9.38998 12.995L8.33665 13.895C8.00998 14.1817 7.58999 14.3217 7.17665 14.3217ZM3.28333 2.50833C2.85 2.50833 2.49667 2.86167 2.49667 3.295V4.42833C2.49667 4.80833 2.32333 5.28833 2.07667 5.58167L1.17 6.64833C0.943333 6.92166 0.943333 7.40166 1.17 7.66833L2.07 8.72833C2.31 9.00166 2.49 9.50166 2.49 9.88166V11.0217C2.49 11.455 2.84333 11.8083 3.27667 11.8083H4.43667C4.81 11.8083 5.30333 11.9883 5.59667 12.235L6.65665 13.1417C6.92998 13.375 7.40998 13.375 7.68332 13.1417L8.73665 12.2417C9.03665 11.9883 9.52332 11.815 9.89665 11.815H11.03C11.4633 11.815 11.8167 11.4617 11.8167 11.0283V9.89499C11.8167 9.52166 11.9966 9.03499 12.2433 8.73499L13.15 7.67499C13.3833 7.40166 13.3833 6.92166 13.15 6.64833L12.25 5.595C11.9966 5.295 11.8233 4.80833 11.8233 4.435V3.295C11.8233 2.86167 11.47 2.50833 11.0367 2.50833H9.90332C9.52332 2.50833 9.02998 2.32833 8.73665 2.08167L7.67665 1.175C7.40332 0.941666 6.92999 0.941666 6.64999 1.175L5.60333 2.08167C5.30333 2.32833 4.81667 2.50833 4.43667 2.50833H3.28333Z" fill="var(--fill-0, #FFFAEB)"/>
<path id="Vector_2" d="M7.16992 10.4075C6.80325 10.4075 6.50325 10.1075 6.50325 9.74086C6.50325 9.37419 6.79659 9.07419 7.16992 9.07419C7.53659 9.07419 7.83659 9.37419 7.83659 9.74086C7.83659 10.1075 7.54325 10.4075 7.16992 10.4075Z" fill="var(--fill-0, #FFFAEB)"/>
<path id="Vector_3" d="M7.16992 8.30873C6.89659 8.30873 6.66992 8.08206 6.66992 7.80873V4.58203C6.66992 4.3087 6.89659 4.08203 7.16992 4.08203C7.44325 4.08203 7.66992 4.3087 7.66992 4.58203V7.80206C7.66992 8.08206 7.44992 8.30873 7.16992 8.30873Z" fill="var(--fill-0, #FFFAEB)"/>
</g>
</svg>
