<svg preserveAspectRatio="none" width="100%" height="100%" overflow="visible" style="display: block;" viewBox="0 0 23.7857 23.7857" fill="none" xmlns="http://www.w3.org/2000/svg">
<g id="Group">
<path id="Vector" d="M11.8929 23.0357C18.0469 23.0357 23.0357 18.0469 23.0357 11.8929C23.0357 5.73883 18.0469 0.75 11.8929 0.75C5.73883 0.75 0.75 5.73883 0.75 11.8929C0.75 18.0469 5.73883 23.0357 11.8929 23.0357Z" stroke="var(--stroke-0, #4979FB)" stroke-width="1.5" stroke-linecap="round" stroke-linejoin="round"/>
<path id="Vector_2" d="M6.23571 17.8929C7.09286 14.8071 10.35 12.9214 13.6071 13.7786C15.4929 14.2929 17.0357 15.8357 17.7214 17.8929" stroke="var(--stroke-0, #4979FB)" stroke-width="1.5" stroke-linecap="round" stroke-linejoin="round"/>
<path id="Vector_3" d="M8.12143 9.32143C7.93207 9.32143 7.77857 9.16793 7.77857 8.97857C7.77857 8.78922 7.93207 8.63571 8.12143 8.63571" stroke="var(--stroke-0, #4979FB)" stroke-width="1.5" stroke-linecap="round" stroke-linejoin="round"/>
<path id="Vector_4" d="M8.12142 9.32144C8.31078 9.32144 8.46428 9.16794 8.46428 8.97858C8.46428 8.78923 8.31078 8.63572 8.12142 8.63572" stroke="var(--stroke-0, #4979FB)" stroke-width="1.5" stroke-linecap="round" stroke-linejoin="round"/>
<path id="Vector_5" d="M15.6643 9.32143C15.4749 9.32143 15.3214 9.16793 15.3214 8.97857C15.3214 8.78922 15.4749 8.63571 15.6643 8.63571" stroke="var(--stroke-0, #4979FB)" stroke-width="1.5" stroke-linecap="round" stroke-linejoin="round"/>
<path id="Vector_6" d="M15.6643 9.32144C15.8536 9.32144 16.0071 9.16794 16.0071 8.97858C16.0071 8.78923 15.8536 8.63572 15.6643 8.63572" stroke="var(--stroke-0, #4979FB)" stroke-width="1.5" stroke-linecap="round" stroke-linejoin="round"/>
</g>
</svg>
