<svg preserveAspectRatio="none" width="100%" height="100%" overflow="visible" style="display: block;" viewBox="0 0 14.3333 14.3733" fill="none" xmlns="http://www.w3.org/2000/svg">
<g id="Group">
<path id="Vector" d="M7.16667 14.3733C6.70667 14.3733 6.27333 14.14 5.96667 13.7333L4.96667 12.4C4.94667 12.3733 4.86667 12.34 4.83333 12.3333H4.5C1.72 12.3333 0 11.58 0 7.83333V4.5C0 1.55333 1.55333 0 4.5 0H9.83333C12.78 0 14.3333 1.55333 14.3333 4.5V7.83333C14.3333 10.78 12.78 12.3333 9.83333 12.3333H9.5C9.44667 12.3333 9.4 12.36 9.36667 12.4L8.36667 13.7333C8.06 14.14 7.62667 14.3733 7.16667 14.3733ZM4.5 1C2.11333 1 1 2.11333 1 4.5V7.83333C1 10.8467 2.03333 11.3333 4.5 11.3333H4.83333C5.17333 11.3333 5.56 11.5267 5.76667 11.8L6.76667 13.1333C7 13.44 7.33333 13.44 7.56667 13.1333L8.56667 11.8C8.78667 11.5067 9.13333 11.3333 9.5 11.3333H9.83333C12.22 11.3333 13.3333 10.22 13.3333 7.83333V4.5C13.3333 2.11333 12.22 1 9.83333 1H4.5Z" fill="var(--fill-0, #6A6A6A)"/>
<path id="Vector_2" d="M7.16667 7.16667C6.79333 7.16667 6.5 6.86667 6.5 6.5C6.5 6.13333 6.8 5.83333 7.16667 5.83333C7.53333 5.83333 7.83333 6.13333 7.83333 6.5C7.83333 6.86667 7.54 7.16667 7.16667 7.16667Z" fill="var(--fill-0, #6A6A6A)"/>
<path id="Vector_3" d="M9.83333 7.16667C9.46 7.16667 9.16667 6.86667 9.16667 6.5C9.16667 6.13333 9.46667 5.83333 9.83333 5.83333C10.2 5.83333 10.5 6.13333 10.5 6.5C10.5 6.86667 10.2067 7.16667 9.83333 7.16667Z" fill="var(--fill-0, #6A6A6A)"/>
<path id="Vector_4" d="M4.5 7.16667C4.12667 7.16667 3.83333 6.86667 3.83333 6.5C3.83333 6.13333 4.13333 5.83333 4.5 5.83333C4.86667 5.83333 5.16667 6.13333 5.16667 6.5C5.16667 6.86667 4.87333 7.16667 4.5 7.16667Z" fill="var(--fill-0, #6A6A6A)"/>
</g>
</svg>
