<svg preserveAspectRatio="none" width="100%" height="100%" overflow="visible" style="display: block;" viewBox="0 0 21.4799 20.1615" fill="none" xmlns="http://www.w3.org/2000/svg">
<g id="Group">
<path id="Vector" d="M10.74 20.1615C10.44 20.1615 10.14 20.0915 9.89003 19.9515C8.02001 18.9315 4.73999 17.8515 2.67999 17.5815L2.39001 17.5415C1.08001 17.3815 0 16.1515 0 14.8215V2.74153C0 1.95153 0.31 1.23156 0.88 0.71156C1.45 0.19156 2.18997 -0.0584497 2.96997 0.0115503C5.15997 0.19155 8.47998 1.29156 10.36 2.46156L10.5999 2.60158C10.6699 2.63158 10.82 2.64158 10.88 2.60158L11.0399 2.50154C11.7099 2.08154 12.5499 1.67153 13.4699 1.30153C13.6999 1.21153 13.9599 1.24154 14.1699 1.38154C14.3799 1.52154 14.5 1.75154 14.5 2.00154V4.68153L15.33 4.13154C15.58 3.96154 15.9099 3.96154 16.1599 4.13154L16.99 4.68153V0.86159C16.99 0.50159 17.2499 0.19153 17.5999 0.12153C17.8899 0.0715303 18.18 0.0315503 18.44 0.0115503C18.46 0.0115503 18.54 0.0115503 18.56 0.0115503C19.29 -0.0484497 20.0399 0.20157 20.5999 0.72157C21.1699 1.24157 21.4799 1.96154 21.4799 2.75154V14.8215C21.4799 16.1615 20.4 17.3815 19.08 17.5415L18.75 17.5815C16.69 17.8515 13.39 18.9415 11.56 19.9515C11.34 20.0915 11.04 20.1615 10.74 20.1615ZM2.71997 1.49153C2.39997 1.49153 2.11 1.60154 1.88 1.81154C1.63 2.04154 1.48999 2.37153 1.48999 2.74153V14.8215C1.48999 15.4115 2 15.9815 2.57 16.0615L2.86999 16.1015C5.11999 16.4015 8.57 17.5315 10.57 18.6315C10.66 18.6715 10.7899 18.6815 10.8399 18.6615C12.8499 17.5515 16.31 16.4116 18.57 16.1116L18.9099 16.0715C19.4799 16.0015 19.99 15.4215 19.99 14.8315V2.76155C19.99 2.39155 19.8499 2.07156 19.5999 1.83156C19.3499 1.60156 19 1.49155 18.64 1.51155C18.61 1.51155 18.52 1.51155 18.5 1.51155V6.08156C18.5 6.36156 18.3499 6.61153 18.0999 6.74153C17.8499 6.87153 17.56 6.86155 17.33 6.70155L15.75 5.65156L14.1699 6.70155C13.9399 6.85155 13.6499 6.87153 13.3999 6.74153C13.1599 6.61153 13 6.36156 13 6.08156V3.15156C12.57 3.36156 12.1799 3.57156 11.8399 3.77156L11.68 3.87153C11.13 4.21153 10.35 4.21154 9.82003 3.88154L9.58003 3.73158C7.89001 2.67158 4.80997 1.65153 2.84997 1.49153C2.79997 1.49153 2.75997 1.49153 2.71997 1.49153Z" fill="var(--fill-0, #6A6A6A)"/>
<path id="Vector_2" d="M10.7402 19.3222C10.3302 19.3222 9.99023 18.9822 9.99023 18.5722V3.57226C9.99023 3.16226 10.3302 2.82226 10.7402 2.82226C11.1502 2.82226 11.4902 3.16226 11.4902 3.57226V18.5722C11.4902 18.9922 11.1502 19.3222 10.7402 19.3222Z" fill="var(--fill-0, #6A6A6A)"/>
<path id="Vector_3" d="M17.7402 6.83251C17.5902 6.83251 17.4502 6.7925 17.3202 6.7025L15.7402 5.65251L14.1602 6.7025C13.9302 6.8525 13.6402 6.87248 13.3902 6.74248C13.1502 6.61248 12.9902 6.36251 12.9902 6.08251V2.00249C12.9902 1.69249 13.1802 1.42248 13.4602 1.30248C14.8402 0.75248 16.3502 0.322491 17.6202 0.122491C17.8402 0.0824905 18.0602 0.15253 18.2302 0.29253C18.4002 0.43253 18.4902 0.64254 18.4902 0.86254V6.08251C18.4902 6.36251 18.3402 6.61248 18.0902 6.74248C17.9802 6.80248 17.8602 6.83251 17.7402 6.83251ZM15.7402 4.00249C15.8802 4.00249 16.0302 4.04249 16.1602 4.13249L16.9902 4.68248V1.77251C16.1902 1.95251 15.3202 2.21251 14.4902 2.52251V4.68248L15.3202 4.13249C15.4502 4.04249 15.6002 4.00249 15.7402 4.00249Z" fill="var(--fill-0, #6A6A6A)"/>
</g>
</svg>
