<svg preserveAspectRatio="none" width="100%" height="100%" overflow="visible" style="display: block;" viewBox="0 0 19.8334 19.8333" fill="none" xmlns="http://www.w3.org/2000/svg">
<path id="Vector" d="M1.07211 11.029C0.74851 8.92318 0.586709 7.87033 0.984826 6.93693C1.38293 6.00353 2.2662 5.36489 4.03272 4.08764L5.35258 3.13333C7.5501 1.54445 8.6489 0.75 9.91665 0.75C11.1845 0.75 12.2832 1.54445 14.4807 3.13333L15.8006 4.08764C17.5672 5.36489 18.4505 6.00353 18.8486 6.93693C19.2467 7.87033 19.0849 8.92318 18.7612 11.029L18.4853 12.8247C18.0266 15.8098 17.7971 17.3024 16.7266 18.1929C15.656 19.0833 14.0909 19.0833 10.9606 19.0833H8.87275C5.74248 19.0833 4.17734 19.0833 3.10675 18.1929C2.03617 17.3024 1.8068 15.8098 1.34806 12.8247L1.07211 11.029Z" fill="var(--fill-0, #4979FB)" stroke="var(--stroke-1, #4979FB)" stroke-width="1.5" stroke-linejoin="round"/>
</svg>
