<svg preserveAspectRatio="none" width="100%" height="100%" overflow="visible" style="display: block;" viewBox="0 0 14.6565 18" fill="none" xmlns="http://www.w3.org/2000/svg">
<path id="Vector" d="M12.2406 9.56283C12.2659 12.2868 14.6303 13.1933 14.6565 13.2048C14.6365 13.2687 14.2787 14.4966 13.4108 15.7649C12.6606 16.8615 11.8819 17.9539 10.6554 17.9766C9.45011 17.9988 9.06256 17.2619 7.68461 17.2619C6.30709 17.2619 5.8765 17.954 4.73559 17.9988C3.55162 18.0436 2.65001 16.8131 1.89357 15.7206C0.347822 13.4858 -0.833451 9.4057 0.7527 6.65155C1.54066 5.28383 2.94882 4.41773 4.47725 4.39552C5.63988 4.37334 6.73723 5.1777 7.44799 5.1777C8.1583 5.1777 9.49183 4.21039 10.8937 4.35245C11.4806 4.37688 13.1281 4.58952 14.1859 6.13794C14.1007 6.19078 12.2202 7.28549 12.2406 9.56283V9.56283ZM9.97552 2.87397C10.6041 2.1131 11.0272 1.0539 10.9117 0C10.0057 0.0364156 8.91008 0.603766 8.26019 1.36422C7.67777 2.03763 7.16769 3.11548 7.30532 4.14852C8.31522 4.22665 9.3469 3.63532 9.97552 2.87397Z" fill="var(--fill-0, black)"/>
</svg>
